<svg width="18" height="16" viewBox="0 0 18 16" fill="none" xmlns="http://www.w3.org/2000/svg">
<path d="M10.2673 0.209499C9.9674 -0.0762009 9.4926 -0.0646004 9.2069 0.2353C8.9212 0.5352 8.9328 1.01 9.2327 1.2957L15.484 7.2502L0.75 7.2502C0.33579 7.2502 -3.67707e-07 7.5859 -3.49597e-07 8.0002C-3.31492e-07 8.4144 0.33579 8.7502 0.75 8.7502L15.4844 8.7502L9.2327 14.705C8.9328 14.9907 8.9212 15.4654 9.2069 15.7653C9.4926 16.0652 9.9674 16.0768 10.2673 15.7911L17.6862 8.7244C17.8553 8.5634 17.9552 8.358 17.9861 8.1444C17.9952 8.0977 18 8.0495 18 8.0002C18 7.9505 17.9952 7.9019 17.9859 7.8549C17.9548 7.6418 17.8549 7.4369 17.6862 7.2762L10.2673 0.209499Z" fill="#212121"/>
</svg>
