<svg width="40" height="40" viewBox="0 0 40 40" fill="none" xmlns="http://www.w3.org/2000/svg">
<path fill-rule="evenodd" clip-rule="evenodd" d="M37.5 40.0004H31.6804L31.6667 40.0005H20H8.33332L8.31962 40.0004H2.5C1.12167 40.0004 0 38.8787 0 37.5004V15.0371C0 14.2188 0.4 13.4521 1.07167 12.9854L19.5233 0.14875C19.81 -0.0495833 20.1883 -0.0495833 20.475 0.14875L38.9267 12.9854C39.6 13.4538 40 14.2204 40 15.0371V37.5004C40 38.8787 38.8783 40.0004 37.5 40.0004ZM13.3333 19.1671V28.3339H8.33332C7.87332 28.3339 7.49999 28.7072 7.49999 29.1672V38.3338H2.5C2.04 38.3338 1.66667 37.9604 1.66667 37.5004V15.0371C1.66667 14.7654 1.8 14.5104 2.02333 14.3538L20 1.84875L37.9767 14.3521C38.2 14.5088 38.3333 14.7638 38.3333 15.0371V37.5004C38.3333 37.9604 37.96 38.3338 37.5 38.3338H32.5V29.1672C32.5 28.7072 32.1267 28.3339 31.6667 28.3339H26.6666V19.1671C26.6666 18.7071 26.2933 18.3338 25.8333 18.3338H20H14.1666C13.7066 18.3338 13.3333 18.7071 13.3333 19.1671ZM19.1667 20.0004V21.6671C19.1667 22.1271 19.54 22.5004 20 22.5004C20.46 22.5004 20.8333 22.1271 20.8333 21.6671V20.0004H25V28.3338H15V20.0004H19.1667ZM19.1667 30.0005L19.1667 38.3338H9.16666V30.0005H13.3333V31.6672C13.3333 32.1272 13.7066 32.5005 14.1666 32.5005C14.6266 32.5005 15 32.1272 15 31.6672V30.0005H19.1667ZM30.8333 38.3338H20.8333V30.0005H25V31.6672C25 32.1272 25.3733 32.5005 25.8333 32.5005C26.2933 32.5005 26.6667 32.1272 26.6667 31.6672V30.0005H30.8333V38.3338Z" fill="#04142C"/>
</svg>
