<svg width="24" height="24" viewBox="0 0 24 24" fill="none" xmlns="http://www.w3.org/2000/svg">
<path d="M10.7327 19.7907C11.0326 20.0764 11.5074 20.0648 11.7931 19.7649C12.0788 19.465 12.0672 18.9902 11.7673 18.7045L5.516 12.75L20.25 12.75C20.6642 12.75 21 12.4143 21 12C21 11.5858 20.6642 11.25 20.25 11.25L5.5156 11.25L11.7673 5.29526C12.0672 5.00957 12.0788 4.53484 11.7931 4.23491C11.5074 3.93499 11.0326 3.92344 10.7327 4.20913L3.3138 11.2758C3.1447 11.4368 3.0448 11.6422 3.0139 11.8558C3.0048 11.9025 3 11.9507 3 12C3 12.0497 3.0048 12.0983 3.0141 12.1453C3.0452 12.3584 3.1451 12.5633 3.3138 12.724L10.7327 19.7907Z" fill="white"/>
</svg>
