<svg width="32" height="32" viewBox="0 0 32 32" fill="none" xmlns="http://www.w3.org/2000/svg">
<path d="M5.9375 3.8125H2.1875C0.981313 3.8125 0 4.79381 0 6V9.75C0 10.2677 0.41975 10.6875 0.9375 10.6875C1.45525 10.6875 1.875 10.2677 1.875 9.75V6C1.875 5.82769 2.01519 5.6875 2.1875 5.6875H5.9375C6.45525 5.6875 6.875 5.26775 6.875 4.75C6.875 4.23225 6.45525 3.8125 5.9375 3.8125Z" fill="black"/>
<path d="M5.9375 26.3125H2.1875C2.01519 26.3125 1.875 26.1723 1.875 26V22.25C1.875 21.7322 1.45525 21.3125 0.9375 21.3125C0.41975 21.3125 0 21.7322 0 22.25V26C0 27.2062 0.981313 28.1875 2.1875 28.1875H5.9375C6.45525 28.1875 6.875 27.7677 6.875 27.25C6.875 26.7323 6.45525 26.3125 5.9375 26.3125Z" fill="black"/>
<path d="M31.0625 21.3125C30.5448 21.3125 30.125 21.7322 30.125 22.25V26C30.125 26.1723 29.9848 26.3125 29.8125 26.3125H26.0625C25.5447 26.3125 25.125 26.7323 25.125 27.25C25.125 27.7677 25.5447 28.1875 26.0625 28.1875H29.8125C31.0187 28.1875 32 27.2062 32 26V22.25C32 21.7322 31.5802 21.3125 31.0625 21.3125Z" fill="black"/>
<path d="M29.8125 3.8125H26.0625C25.5447 3.8125 25.125 4.23225 25.125 4.75C25.125 5.26775 25.5447 5.6875 26.0625 5.6875H29.8125C29.9848 5.6875 30.125 5.82769 30.125 6V9.75C30.125 10.2677 30.5448 10.6875 31.0625 10.6875C31.5802 10.6875 32 10.2677 32 9.75V6C32 4.79381 31.0187 3.8125 29.8125 3.8125Z" fill="black"/>
<path d="M5.625 23.4375V8.5625C5.625 8.04475 5.20525 7.625 4.6875 7.625C4.16975 7.625 3.75 8.04475 3.75 8.5625V23.4375C3.75 23.9552 4.16975 24.375 4.6875 24.375C5.20525 24.375 5.625 23.9552 5.625 23.4375Z" fill="black"/>
<path d="M8.4375 7.625C7.91975 7.625 7.5 8.04475 7.5 8.5625V18.4375C7.5 18.9552 7.91975 19.375 8.4375 19.375C8.95525 19.375 9.375 18.9552 9.375 18.4375V8.5625C9.375 8.04475 8.95525 7.625 8.4375 7.625Z" fill="black"/>
<path d="M12.1875 7.625C11.6697 7.625 11.25 8.04475 11.25 8.5625V23.4375C11.25 23.9552 11.6697 24.375 12.1875 24.375C12.7053 24.375 13.125 23.9552 13.125 23.4375V8.5625C13.125 8.04475 12.7053 7.625 12.1875 7.625Z" fill="black"/>
<path d="M15.9375 7.625C15.4197 7.625 15 8.04475 15 8.5625V18.4375C15 18.9552 15.4197 19.375 15.9375 19.375C16.4553 19.375 16.875 18.9552 16.875 18.4375V8.5625C16.875 8.04475 16.4553 7.625 15.9375 7.625Z" fill="black"/>
<path d="M19.6875 7.625C19.1697 7.625 18.75 8.04475 18.75 8.5625V18.4375C18.75 18.9552 19.1697 19.375 19.6875 19.375C20.2053 19.375 20.625 18.9552 20.625 18.4375V8.5625C20.625 8.04475 20.2053 7.625 19.6875 7.625Z" fill="black"/>
<path d="M23.4375 7.625C22.9197 7.625 22.5 8.04475 22.5 8.5625V18.4375C22.5 18.9552 22.9197 19.375 23.4375 19.375C23.9553 19.375 24.375 18.9552 24.375 18.4375V8.5625C24.375 8.04475 23.9553 7.625 23.4375 7.625Z" fill="black"/>
<path d="M28.125 23.4375V8.5625C28.125 8.04475 27.7053 7.625 27.1875 7.625C26.6697 7.625 26.25 8.04475 26.25 8.5625V23.4375C26.25 23.9552 26.6697 24.375 27.1875 24.375C27.7053 24.375 28.125 23.9552 28.125 23.4375Z" fill="black"/>
<path d="M8.4375 21.4375C7.91975 21.4375 7.5 21.8572 7.5 22.375V23.4375C7.5 23.9553 7.91975 24.375 8.4375 24.375C8.95525 24.375 9.375 23.9553 9.375 23.4375V22.375C9.375 21.8572 8.95525 21.4375 8.4375 21.4375Z" fill="black"/>
<path d="M15.9375 21.4375C15.4197 21.4375 15 21.8572 15 22.375V23.4375C15 23.9553 15.4197 24.375 15.9375 24.375C16.4553 24.375 16.875 23.9553 16.875 23.4375V22.375C16.875 21.8572 16.4553 21.4375 15.9375 21.4375Z" fill="black"/>
<path d="M19.6875 21.4375C19.1697 21.4375 18.75 21.8572 18.75 22.375V23.4375C18.75 23.9553 19.1697 24.375 19.6875 24.375C20.2053 24.375 20.625 23.9553 20.625 23.4375V22.375C20.625 21.8572 20.2053 21.4375 19.6875 21.4375Z" fill="black"/>
<path d="M23.4375 21.4375C22.9197 21.4375 22.5 21.8572 22.5 22.375V23.4375C22.5 23.9553 22.9197 24.375 23.4375 24.375C23.9553 24.375 24.375 23.9553 24.375 23.4375V22.375C24.375 21.8572 23.9553 21.4375 23.4375 21.4375Z" fill="black"/>
</svg>
