<svg width="24" height="24" viewBox="0 0 24 24" fill="none" xmlns="http://www.w3.org/2000/svg">
<path d="M3.80195 0.09375C3.1457 0.09375 2.61133 0.628125 2.61133 1.28437V22.7156C2.61133 23.3719 3.1457 23.9062 3.80195 23.9062H7.13008V0.09375H3.80195Z" fill="#FDC77C"/>
<path d="M20.4152 0.09375H7.13086V23.9062H20.4152C21.0715 23.9062 21.6059 23.3719 21.6059 22.7156V1.28437C21.6059 0.628125 21.0715 0.09375 20.4152 0.09375Z" fill="#FBD984"/>
<path d="M2.61133 21.9707V22.716C2.61133 23.3723 3.1457 23.9066 3.80195 23.9066H7.13008V23.1613H3.80195C3.1457 23.1613 2.61133 22.627 2.61133 21.9707Z" fill="#E39A61"/>
<path d="M20.4152 23.1613H7.13086V23.9066H20.4152C21.0715 23.9066 21.6059 23.3723 21.6059 22.716V21.9707C21.6059 22.627 21.0715 23.1613 20.4152 23.1613Z" fill="#FDC77C"/>
<g opacity="0.3">
<path d="M4.3457 3.47363H2.61133V4.65957H4.3457C4.67383 4.65957 4.93633 4.39238 4.93633 4.06895C4.93633 3.74551 4.67383 3.47363 4.3457 3.47363Z" fill="#445C6C"/>
<path d="M4.3457 7.62695H2.61133V8.81289H4.3457C4.67383 8.81289 4.93633 8.5457 4.93633 8.22227C4.93633 7.89883 4.67383 7.62695 4.3457 7.62695Z" fill="#445C6C"/>
<path d="M4.3457 11.7803H2.61133V12.9662H4.3457C4.67383 12.9662 4.93633 12.699 4.93633 12.3756C4.93633 12.0475 4.67383 11.7803 4.3457 11.7803Z" fill="#445C6C"/>
<path d="M4.3457 15.9326H2.61133V17.1186H4.3457C4.67383 17.1186 4.93633 16.8514 4.93633 16.5279C4.93633 16.1998 4.67383 15.9326 4.3457 15.9326Z" fill="#445C6C"/>
<path d="M4.3457 20.0859H2.61133V21.2719H4.3457C4.67383 21.2719 4.93633 21.0047 4.93633 20.6813C4.93633 20.3531 4.67383 20.0859 4.3457 20.0859Z" fill="#445C6C"/>
</g>
<path d="M4.28047 3.09863H1.73516C1.40703 3.09863 1.14453 3.36582 1.14453 3.68926C1.14453 4.01738 1.41172 4.27988 1.73516 4.27988H4.27578C4.60391 4.27988 4.86641 4.0127 4.86641 3.68926C4.87109 3.36582 4.60391 3.09863 4.28047 3.09863Z" fill="#445C6C"/>
<path d="M4.28047 7.25195H1.73516C1.40703 7.25195 1.14453 7.51914 1.14453 7.84258C1.14453 8.1707 1.41172 8.4332 1.73516 8.4332H4.27578C4.60391 8.4332 4.86641 8.16602 4.86641 7.84258C4.87109 7.51914 4.60391 7.25195 4.28047 7.25195Z" fill="#445C6C"/>
<path d="M4.28047 11.4092H1.73516C1.40703 11.4092 1.14453 11.6764 1.14453 11.9998C1.14453 12.3279 1.41172 12.5904 1.73516 12.5904H4.27578C4.60391 12.5904 4.86641 12.3232 4.86641 11.9998C4.87109 11.6717 4.60391 11.4092 4.28047 11.4092Z" fill="#445C6C"/>
<path d="M4.28047 15.5625H1.73516C1.40703 15.5625 1.14453 15.8297 1.14453 16.1531C1.14453 16.4813 1.41172 16.7438 1.73516 16.7438H4.27578C4.60391 16.7438 4.86641 16.4766 4.86641 16.1531C4.87109 15.825 4.60391 15.5625 4.28047 15.5625Z" fill="#445C6C"/>
<path d="M4.28047 19.7158H1.73516C1.40703 19.7158 1.14453 19.983 1.14453 20.3064C1.14453 20.6346 1.41172 20.8971 1.73516 20.8971H4.27578C4.60391 20.8971 4.86641 20.6299 4.86641 20.3064C4.87109 19.9783 4.60391 19.7158 4.28047 19.7158Z" fill="#445C6C"/>
<path d="M22.857 7.14336H21.6055V2.82617H22.7258C22.7961 2.82617 22.857 2.88711 22.857 2.95742V7.14336Z" fill="#F1786B"/>
<path d="M22.857 11.4469H21.6055V7.125H22.7258C22.7961 7.125 22.857 7.18594 22.857 7.25625V11.4469Z" fill="#5AC8AE"/>
<path d="M22.857 15.7643H21.6055V11.4424H22.7258C22.7961 11.4424 22.857 11.5033 22.857 11.5736V15.7643Z" fill="#788D9A"/>
<path d="M22.857 20.0855H21.6055V15.7637H22.7258C22.7961 15.7637 22.857 15.8246 22.857 15.8949V20.0855Z" fill="#41B3E2"/>
<path d="M11.2973 7.1248H17.4332C17.7238 7.1248 17.9629 6.88574 17.9629 6.59512C17.9629 6.30449 17.7238 6.06543 17.4332 6.06543H11.2973C11.0066 6.06543 10.7676 6.30449 10.7676 6.59512C10.7676 6.88574 11.0066 7.1248 11.2973 7.1248Z" fill="white"/>
<path d="M17.4332 9.52441H11.2973C11.0066 9.52441 10.7676 9.76348 10.7676 10.0541C10.7676 10.3447 11.0066 10.5838 11.2973 10.5838H17.4332C17.7238 10.5838 17.9629 10.3447 17.9629 10.0541C17.9629 9.76348 17.7285 9.52441 17.4332 9.52441Z" fill="white"/>
</svg>
