<svg width="64" height="65" viewBox="0 0 64 65" fill="none" xmlns="http://www.w3.org/2000/svg">
<g clip-path="url(#clip0_238_3427)">
<path d="M51.8517 62.294H34.2024V57.1423C34.2415 57.0971 34.2789 57.05 34.3127 56.9993C35.9869 53.6507 38.2561 51.0973 40.1799 49.0546C46.5213 49.0036 50.3673 47.8916 52.8446 45.3066C55.2715 42.8798 56.3745 39.1294 56.2643 33.614C56.2643 32.9521 55.7127 32.5108 55.1611 32.5108C45.0167 32.5108 38.7564 34.9933 38.6181 47.5279C37.22 49.0079 35.6566 50.7344 34.2024 52.8286V38.0261C34.2024 36.6515 35.7234 33.9591 37.987 31.4065C48.1411 31.3576 52.9547 29.6514 52.9547 15.9644C52.9547 15.3025 52.5135 14.8613 51.8516 14.8613C41.4755 14.8613 36.5075 16.3774 36.4107 29.8996C35.8556 30.529 35.02 31.5258 34.2233 32.6785C34.216 32.6382 34.2103 32.5978 34.2022 32.5573V20.3766C34.2022 19.0477 34.2891 17.8922 34.4746 16.8346C38.0233 16.1948 41.2936 14.0888 43.1372 11.221C44.9021 8.46328 45.233 4.93344 44.13 1.29327C43.9093 0.741699 43.4681 0.410808 42.9167 0.521147C37.1807 1.40361 33.0992 3.72009 31.4446 7.36026C30.1886 10.0816 30.5228 13.2001 32.3505 16.1505C32.1097 17.4191 31.9961 18.7989 31.9961 20.3767V28.0127C31.1106 26.7727 30.2119 25.7878 29.7864 25.3427C29.7261 20.3822 28.8338 17.4351 26.8116 15.4129C24.826 13.4273 21.8477 12.6551 17.656 12.6551C16.9941 12.6551 16.5529 13.2067 16.5529 13.7583C16.5529 21.5782 18.5848 26.8316 28.229 26.9915C29.4962 28.3511 31.996 31.4912 31.996 33.6138V47.7944C30.9574 46.4464 29.9563 45.5143 29.128 44.755C28.9764 44.6035 28.8253 44.4524 28.6842 44.3113C28.5805 28.939 21.316 25.8923 8.83116 25.8923C8.16926 25.8923 7.72803 26.3335 7.72803 26.9954C7.72803 39.283 14.2672 45.5674 27.0278 45.7436C27.2498 45.9656 27.4718 46.1876 27.6938 46.4096C28.8784 47.4865 30.4834 48.9845 31.9959 51.6209V62.2941H14.3468C13.6849 62.2941 13.2437 62.7354 13.2437 63.3973C13.2437 64.0592 13.6849 64.5004 14.3468 64.5004H51.8517C52.5136 64.5004 52.9548 64.0592 52.9548 63.3973C52.9548 62.7352 52.5136 62.294 51.8517 62.294ZM54.0579 34.7169C53.9475 39.0189 53.0651 41.8869 51.3001 43.7621C49.4491 45.716 46.5426 46.6151 41.8673 46.8172C43.0949 45.0088 44.7031 43.2524 46.8877 42.3281C47.4393 42.1074 47.6598 41.4456 47.4393 40.8941C47.2186 40.3425 46.5568 40.1219 46.0053 40.3425C43.897 41.2648 42.3006 42.6595 41.0274 44.1972C42.0202 36.5388 46.2819 34.8166 54.0579 34.7169ZM33.4302 8.24285C34.6435 5.48513 37.7322 3.60988 42.2549 2.83776C42.9168 5.59547 42.5858 8.0223 41.2621 10.1181C39.7413 12.4943 37.2382 13.887 35.0926 14.5093C35.5122 13.3609 36.0905 12.272 36.8497 11.1109C37.1806 10.5593 37.0703 9.89755 36.5188 9.56654C35.9672 9.23565 35.3054 9.34586 34.9744 9.89743C34.2835 10.9518 33.7253 11.9705 33.2863 13.0203C32.7298 11.3658 32.7766 9.71361 33.4302 8.24285ZM18.7591 14.8614C21.7374 14.9718 23.8333 15.6335 25.2674 16.9572C26.445 18.2254 27.1759 20.0894 27.4608 22.8533L25.157 20.3767C24.7158 19.9355 24.0539 19.8252 23.6127 20.2664C23.1714 20.7076 23.0611 21.3695 23.5023 21.8107L26.0975 24.6654C20.2873 23.9492 18.8614 20.6814 18.7591 14.8614ZM9.93455 28.0984C19.871 28.3034 25.3355 30.6027 26.3299 41.0003C24.0176 37.9798 21.6412 35.9213 19.2005 34.8272C18.6489 34.6065 17.9871 34.8272 17.7665 35.3788C17.5458 35.9303 17.7665 36.5921 18.318 36.8128C20.7995 37.8626 23.1983 40.0695 25.5859 43.5028C15.2712 42.9308 10.2563 37.9653 9.93455 28.0984ZM50.7385 17.0734C50.5476 27.1251 47.65 28.9184 40.0327 29.1664C41.3563 27.7137 43.164 25.871 44.792 24.5686C45.3436 24.2377 45.3436 23.4654 45.0127 23.0242C44.6818 22.4727 43.9096 22.4727 43.4684 22.8035C41.8054 24.0885 40.0391 25.8395 38.7014 27.2759C39.2612 18.378 42.6188 17.161 50.7385 17.0734Z" fill="white"/>
</g>
<defs>
<clipPath id="clip0_238_3427">
<rect width="64" height="64" fill="white" transform="translate(0 0.5)"/>
</clipPath>
</defs>
</svg>
