<svg width="32" height="32" viewBox="0 0 32 32" fill="none" xmlns="http://www.w3.org/2000/svg">
<path d="M24.01 2.5991H23.531V2.0001C23.531 1.5031 23.128 1.1001 22.631 1.1001C22.134 1.1001 21.731 1.5031 21.731 2.0001V2.5991H10.269V2.0001C10.269 1.5031 9.866 1.1001 9.369 1.1001C8.872 1.1001 8.469 1.5031 8.469 2.0001V2.5991H7.993C4.605 2.5991 1.849 5.3551 1.849 8.7431V24.7571C1.849 28.1451 4.605 30.9011 7.993 30.9011H24.007C27.395 30.9011 30.151 28.1451 30.151 24.7571V8.7391C30.15 5.3541 27.396 2.5991 24.01 2.5991ZM7.993 4.3991H8.469V4.9981C8.469 5.4951 8.872 5.8981 9.369 5.8981C9.866 5.8981 10.269 5.4951 10.269 4.9981V4.3991H21.731V4.9981C21.731 5.4951 22.134 5.8981 22.631 5.8981C23.128 5.8981 23.531 5.4951 23.531 4.9981V4.3991H24.01C26.403 4.3991 28.35 6.3461 28.35 8.7391V10.8471H3.649V8.7431C3.649 6.3481 5.598 4.3991 7.993 4.3991ZM24.007 29.1001H7.993C5.598 29.1001 3.649 27.1511 3.649 24.7561V12.6471H28.35V24.7561C28.351 27.1511 26.402 29.1001 24.007 29.1001Z" fill="black"/>
<path d="M10.367 17.0142H8.95798C8.46098 17.0142 8.05798 17.4172 8.05798 17.9142C8.05798 18.4112 8.46098 18.8142 8.95798 18.8142H10.367C10.864 18.8142 11.267 18.4112 11.267 17.9142C11.267 17.4172 10.864 17.0142 10.367 17.0142Z" fill="black"/>
<path d="M16.705 17.0142H15.296C14.799 17.0142 14.396 17.4172 14.396 17.9142C14.396 18.4112 14.799 18.8142 15.296 18.8142H16.705C17.202 18.8142 17.605 18.4112 17.605 17.9142C17.605 17.4172 17.202 17.0142 16.705 17.0142Z" fill="black"/>
<path d="M21.633 18.8142H23.042C23.539 18.8142 23.942 18.4112 23.942 17.9142C23.942 17.4172 23.539 17.0142 23.042 17.0142H21.633C21.136 17.0142 20.733 17.4172 20.733 17.9142C20.733 18.4112 21.136 18.8142 21.633 18.8142Z" fill="black"/>
<path d="M10.367 22.9341H8.95798C8.46098 22.9341 8.05798 23.3371 8.05798 23.8341C8.05798 24.3311 8.46098 24.7341 8.95798 24.7341H10.367C10.864 24.7341 11.267 24.3311 11.267 23.8341C11.267 23.3371 10.864 22.9341 10.367 22.9341Z" fill="black"/>
<path d="M16.705 22.9341H15.296C14.799 22.9341 14.396 23.3371 14.396 23.8341C14.396 24.3311 14.799 24.7341 15.296 24.7341H16.705C17.202 24.7341 17.605 24.3311 17.605 23.8341C17.605 23.3371 17.202 22.9341 16.705 22.9341Z" fill="black"/>
<path d="M23.042 22.9341H21.633C21.136 22.9341 20.733 23.3371 20.733 23.8341C20.733 24.3311 21.136 24.7341 21.633 24.7341H23.042C23.539 24.7341 23.942 24.3311 23.942 23.8341C23.942 23.3371 23.54 22.9341 23.042 22.9341Z" fill="black"/>
</svg>
