<svg width="64" height="64" viewBox="0 0 64 64" fill="none" xmlns="http://www.w3.org/2000/svg">
<path d="M20.9135 6.7706C17.5811 5.92641 14.0959 6.28551 11.3633 7.81441C8.58198 9.37057 6.6294 12.1264 6.53308 15.819C6.38268 21.5833 7.71872 29.3194 13.0182 38.4041C18.2496 47.3721 24.0267 52.7475 28.818 55.9436C31.8452 57.9632 35.1915 58.0163 38.0491 56.6995C40.8622 55.4031 43.1483 52.8159 44.3355 49.6063C44.9329 47.9907 44.7921 46.1945 43.9505 44.6918L40.8993 39.2431C38.9591 35.7782 34.7703 34.2611 31.0612 35.6799L28.931 36.4947C27.8988 36.8895 26.9493 36.7078 26.4098 36.1779C24.6012 34.4012 23.3091 31.9891 22.7229 29.3906C22.5386 28.5735 22.9131 27.6073 23.8177 26.9247L25.7413 25.473C28.958 23.0455 29.8669 18.6042 27.8625 15.1082L24.7525 9.68391C23.9205 8.23275 22.5351 7.18138 20.9135 6.7706ZM9.732 15.9024C9.79654 13.4286 11.0482 11.6575 12.9258 10.607C14.8521 9.52922 17.4805 9.20199 20.1277 9.87262C20.9086 10.0704 21.5757 10.5767 21.9764 11.2756L25.0864 16.6998C26.289 18.7974 25.7437 21.4622 23.8137 22.9187L21.89 24.3704C20.2286 25.6242 19.0783 27.7759 19.6014 30.0948C20.3108 33.2396 21.8826 36.2166 24.1675 38.4607C25.8359 40.0995 28.2161 40.1945 30.0743 39.4835L32.2046 38.6687C34.4302 37.8175 36.9431 38.7276 38.1073 40.8067L41.1585 46.2553C41.5425 46.9404 41.6065 47.7596 41.3342 48.4963C40.4055 51.007 38.6641 52.8927 36.7099 53.7932C34.8007 54.6729 32.6404 54.647 30.5938 53.2815C26.2073 50.3555 20.7683 45.3391 15.7823 36.7916C10.7794 28.2153 9.59728 21.0656 9.732 15.9024ZM40.7771 6.59911C40.0046 6.16996 39.0305 6.44826 38.6014 7.22071C38.1723 7.99319 38.4507 8.96727 39.2231 9.39639L40.4516 10.079C48.2436 14.4079 53.4203 22.28 54.3073 31.1496L54.4081 32.1571C54.4958 33.0361 55.2801 33.6777 56.1591 33.5897C57.0385 33.502 57.6801 32.7177 57.5921 31.8385L57.4913 30.8312C56.4999 20.9182 50.7146 12.1199 42.0059 7.2817L40.7771 6.59911ZM37.0282 15.1746C37.483 14.4169 38.4657 14.1712 39.2235 14.6258L39.6206 14.8641C44.8462 17.9996 48.434 23.2691 49.4359 29.2805L49.5783 30.1348C49.7236 31.0064 49.1348 31.8308 48.2631 31.976C47.3915 32.1212 46.5671 31.5325 46.4219 30.6608L46.2795 29.8065C45.4318 24.72 42.3959 20.2612 37.9742 17.6081L37.5771 17.3698C36.8193 16.9151 36.5735 15.9323 37.0282 15.1746Z" fill="white"/>
</svg>
