<svg width="32" height="32" viewBox="0 0 32 32" fill="none" xmlns="http://www.w3.org/2000/svg">
<path d="M18.5663 3.33862C19.6301 3.33862 20.6143 3.90192 21.153 4.81912L22.2391 6.66789H25.0001C27.3933 6.66789 29.3334 8.60798 29.3334 11.0012V23.6679C29.3334 26.0611 27.3933 28.0013 25.0001 28.0013H7.00008C4.60684 28.0013 2.66675 26.0611 2.66675 23.6679V11.0012C2.66675 8.60798 4.60684 6.66789 7.00008 6.66789H9.77397L10.9401 4.76882C11.4857 3.88016 12.4538 3.33862 13.4966 3.33862H18.5663ZM18.5663 5.33862H13.4966C13.1986 5.33862 12.919 5.47124 12.7307 5.69568L12.6444 5.81536L11.1856 8.19116C11.0037 8.48737 10.681 8.66789 10.3334 8.66789H7.00008C5.71141 8.66789 4.66675 9.71256 4.66675 11.0012V23.6679C4.66675 24.9566 5.71141 26.0013 7.00008 26.0013H25.0001C26.2887 26.0013 27.3334 24.9566 27.3334 23.6679V11.0012C27.3334 9.71256 26.2887 8.66789 25.0001 8.66789H21.6667C21.3122 8.66789 20.9841 8.48012 20.8045 8.17438L19.4286 5.83212C19.249 5.52638 18.9209 5.33862 18.5663 5.33862ZM16.0001 10.6679C19.3138 10.6679 22.0001 13.3542 22.0001 16.6679C22.0001 19.9815 19.3138 22.6679 16.0001 22.6679C12.6864 22.6679 10.0001 19.9815 10.0001 16.6679C10.0001 13.3542 12.6864 10.6679 16.0001 10.6679ZM16.0001 12.6679C13.7909 12.6679 12.0001 14.4587 12.0001 16.6679C12.0001 18.877 13.7909 20.6679 16.0001 20.6679C18.2093 20.6679 20.0001 18.877 20.0001 16.6679C20.0001 14.4587 18.2093 12.6679 16.0001 12.6679Z" fill="#212121"/>
</svg>
