<svg width="32" height="32" viewBox="0 0 32 32" fill="none" xmlns="http://www.w3.org/2000/svg">
<path d="M16.0001 2.66699C23.3638 2.66699 29.3334 8.63653 29.3334 16.0003C29.3334 23.3641 23.3638 29.3337 16.0001 29.3337C8.63628 29.3337 2.66675 23.3641 2.66675 16.0003C2.66675 8.63653 8.63628 2.66699 16.0001 2.66699ZM16.0001 4.66699C9.74085 4.66699 4.66675 9.7411 4.66675 16.0003C4.66675 22.2595 9.74085 27.3337 16.0001 27.3337C22.2593 27.3337 27.3334 22.2595 27.3334 16.0003C27.3334 9.7411 22.2593 4.66699 16.0001 4.66699ZM14.3334 17.9194L20.293 11.9599C20.6835 11.5694 21.3166 11.5694 21.7071 11.9599C22.0622 12.3149 22.0945 12.8705 21.8039 13.2619L21.7071 13.3741L15.0405 20.0407C14.6855 20.3958 14.1299 20.4281 13.7385 20.1375L13.6263 20.0407L10.293 16.7074C9.90245 16.3169 9.90245 15.6838 10.293 15.2933C10.648 14.9382 11.2035 14.9059 11.595 15.1965L11.7072 15.2933L14.3334 17.9194L20.293 11.9599L14.3334 17.9194Z" fill="#00C753"/>
</svg>
