<svg width="16" height="16" viewBox="0 0 16 16" fill="none" xmlns="http://www.w3.org/2000/svg">
<path d="M9.19091 8.00001L15.7534 1.43756C16.0822 1.10869 16.0822 0.5755 15.7534 0.246656C15.4245 -0.0822188 14.8913 -0.0822188 14.5624 0.246656L7.99994 6.8091L1.4375 0.246656C1.10863 -0.0822188 0.575439 -0.0822188 0.246595 0.246656C-0.0822486 0.575532 -0.0822798 1.10872 0.246595 1.43756L6.80904 8.00001L0.246595 14.5624C-0.0822798 14.8913 -0.0822798 15.4245 0.246595 15.7534C0.575471 16.0822 1.10866 16.0822 1.4375 15.7534L7.99994 9.19091L14.5624 15.7534C14.8912 16.0822 15.4244 16.0822 15.7533 15.7534C16.0821 15.4245 16.0821 14.8913 15.7533 14.5624L9.19091 8.00001Z" fill="black"/>
</svg>
