<svg width="40" height="40" viewBox="0 0 40 40" fill="none" xmlns="http://www.w3.org/2000/svg">
<g clip-path="url(#clip0_645_24633)">
<path d="M39.8353 23.8474L29.708 16.0068C30.9876 15.6287 31.9242 14.4434 31.9242 13.0426V3.02612C31.9242 1.32172 30.5378 -0.0650024 28.8377 -0.0650024L27.0509 -0.078125C27.0493 -0.078125 27.0478 -0.078125 27.0463 -0.078125C26.7243 -0.078125 26.4619 0.181885 26.4594 0.504456C26.4573 0.828553 26.7182 1.09314 27.042 1.09558L28.8334 1.1087C29.8905 1.1087 30.7505 1.969 30.7505 3.02612V13.0426C30.7505 14.0997 29.8905 14.96 28.8334 14.96H22.5727C22.3506 14.96 22.1473 15.0855 22.0478 15.2844L20.0688 19.2429L18.0894 15.2844C17.9902 15.0855 17.787 14.96 17.5645 14.96H11.3041C10.247 14.96 9.38698 14.0997 9.38698 13.0426V3.02612C9.38698 1.969 10.247 1.1087 11.3047 1.1087L24.2298 1.09558C24.5539 1.09528 24.8164 0.83252 24.8161 0.508118C24.8158 0.184326 24.5533 -0.078125 24.2292 -0.078125C24.2292 -0.078125 24.2289 -0.078125 24.2286 -0.078125L11.3041 -0.0650024C9.59969 -0.0650024 8.21297 1.32172 8.21297 3.02612V13.0426C8.21297 14.4434 9.14956 15.6287 10.4292 16.0068L0.3022 23.8474C0.00343318 24.0787 0.00343318 24.5441 0.3022 24.7754L19.7096 39.8004C19.9186 39.9625 20.2189 39.9625 20.4279 39.8004L39.8353 24.7754C40.1341 24.5441 40.1341 24.0787 39.8353 23.8474ZM19.5438 20.8176C19.7556 21.2418 20.3816 21.2418 20.5937 20.8176L22.9356 16.1337H27.993C28.025 16.1774 28.0631 16.2177 28.108 16.2528L29.0602 16.9898L20.0688 23.5837L11.077 16.9898L12.0676 16.2232C12.1021 16.1963 12.1327 16.1661 12.1595 16.1337H17.2019L19.5438 20.8176ZM10.1603 17.6999C10.2003 17.7756 19.0763 24.3115 19.0763 24.3115C19.0763 24.3115 10.2003 30.8472 10.1603 30.9232L1.62026 24.3115L10.1603 17.6999ZM20.0688 38.5941L11.077 31.633L20.0688 25.0391L29.0602 31.633L20.0688 38.5941ZM29.9772 30.9229C29.9372 30.8472 21.0612 24.3112 21.0612 24.3112C21.0612 24.3112 29.9372 17.7756 29.9772 17.6996L38.5173 24.3112L29.9772 30.9229Z" fill="black"/>
<path d="M12.5556 3.06445C12.2315 3.06445 11.9688 3.32721 11.9688 3.65131V11.7897C11.9688 12.1141 12.2315 12.3769 12.5556 12.3769H27.5806C27.9047 12.3769 28.1675 12.1141 28.1675 11.7897C28.1675 11.4656 27.9047 11.2029 27.5806 11.2029H13.1425V3.65131C13.1425 3.32721 12.8797 3.06445 12.5556 3.06445Z" fill="black"/>
<path d="M22.8086 7.36953L21.1643 5.17715C20.907 4.83413 20.361 4.88387 20.1697 5.26687L18.5889 8.42849L17.2638 7.54531C17.0667 7.41378 16.81 7.41378 16.6129 7.54531L14.7348 8.79745C14.4895 8.96072 14.4031 9.29275 14.5386 9.55489C14.6973 9.86129 15.0983 9.96597 15.3861 9.77401L16.9385 8.73885L18.4912 9.77401C18.7808 9.96719 19.1861 9.85885 19.3415 9.54818L20.795 6.64138L22.1033 8.38577C22.2452 8.57467 22.486 8.66042 22.7152 8.60305L25.2194 7.97713C25.3855 7.93533 25.5252 7.82333 25.6018 7.67013L26.854 5.16585C26.9989 4.87594 26.8814 4.52346 26.5915 4.3785C26.3016 4.23354 25.9491 4.35103 25.8042 4.64095L24.6726 6.90383L22.8086 7.36953Z" fill="black"/>
</g>
<defs>
<clipPath id="clip0_645_24633">
<rect width="40" height="40" fill="white"/>
</clipPath>
</defs>
</svg>
