<svg width="25" height="24" viewBox="0 0 25 24" fill="none" xmlns="http://www.w3.org/2000/svg">
<path d="M10.75 11C10.3358 11 10 11.3358 10 11.75C10 12.1642 10.3358 12.5 10.75 12.5H14.25C14.6642 12.5 15 12.1642 15 11.75C15 11.3358 14.6642 11 14.25 11H10.75ZM3.5 5.25C3.5 4.00736 4.50736 3 5.75 3H19.25C20.4926 3 21.5 4.00736 21.5 5.25V6.75C21.5 7.5301 21.103 8.21748 20.5 8.62111V17.25C20.5 19.3211 18.8211 21 16.75 21H8.25C6.17893 21 4.5 19.3211 4.5 17.25V8.62111C3.89701 8.21748 3.5 7.5301 3.5 6.75V5.25ZM6 9V17.25C6 18.4926 7.00736 19.5 8.25 19.5H16.75C17.9926 19.5 19 18.4926 19 17.25V9H6ZM5.75 4.5C5.33579 4.5 5 4.83579 5 5.25V6.75C5 7.16421 5.33579 7.5 5.75 7.5H19.25C19.6642 7.5 20 7.16421 20 6.75V5.25C20 4.83579 19.6642 4.5 19.25 4.5H5.75Z" fill="#212121"/>
</svg>
