<svg width="32" height="32" viewBox="0 0 32 32" fill="none" xmlns="http://www.w3.org/2000/svg">
<g clip-path="url(#clip0_361_12145)">
<path d="M31.2 0H24.8C24.3582 0 24 0.358154 24 0.800049V9.6001H20.8V4C20.7993 3.55811 20.4407 3.19995 19.9985 3.20044C19.8411 3.20068 19.6873 3.24731 19.5562 3.33447L11.2 8.90479V4C11.1995 3.55811 10.8406 3.19995 10.3984 3.20044C10.2412 3.20068 10.0872 3.24731 9.95605 3.33447L0.356201 9.73438C0.133789 9.88281 0 10.1323 0 10.4001V31.2C0 31.6418 0.358154 32 0.800049 32H31.2C31.6418 32 32 31.6418 32 31.2V0.800049C32 0.358154 31.6416 0 31.2 0V0ZM30.3999 30.3999H1.59985V10.8281L9.59985 5.49536V10.4001C9.60034 10.842 9.95923 11.2 10.4014 11.1997C10.5586 11.1995 10.7126 11.1528 10.8438 11.0657L19.2 5.49561V10.4001C19.2 10.842 19.5581 11.2002 20 11.2002H24.7998C25.2417 11.2002 25.5999 10.842 25.5999 10.4001V1.59985H30.3999V30.3999Z" fill="black"/>
<path d="M24.8 17.5996H7.19995C6.75806 17.5996 6.3999 17.9578 6.3999 18.3997C6.3999 18.8416 6.75806 19.1997 7.19995 19.1997H24.8C25.2419 19.1997 25.6001 18.8416 25.6001 18.3997C25.6001 17.9578 25.2417 17.5996 24.8 17.5996Z" fill="black"/>
<path d="M24.8 22.3999H7.19995C6.75806 22.3999 6.3999 22.7581 6.3999 23.2C6.3999 23.6418 6.75806 24 7.19995 24H24.8C25.2419 24 25.6001 23.6418 25.6001 23.2C25.6001 22.7581 25.2417 22.3999 24.8 22.3999Z" fill="black"/>
</g>
<defs>
<clipPath id="clip0_361_12145">
<rect width="32" height="32" fill="white"/>
</clipPath>
</defs>
</svg>
