<svg width="40" height="42" viewBox="0 0 40 42" fill="none" xmlns="http://www.w3.org/2000/svg">
<path d="M39.5583 27.7901L30.911 22.7042V20.6175H32.3295C34.013 20.6175 35.3827 19.1967 35.3827 17.4504V16.7482C35.3827 16.1126 34.8842 15.5956 34.2715 15.5956H32.7877C32.0805 15.5956 31.4292 15.847 30.911 16.2672C30.911 16.2672 30.8976 12.1231 30.874 11.9295H33.1236C34.0079 11.9295 34.8631 11.7354 35.665 11.3528C35.9602 11.212 36.0894 10.8496 35.9537 10.5435C35.818 10.2373 35.4688 10.1033 35.1735 10.2441C34.5268 10.5526 33.8371 10.709 33.1236 10.709H30.911V9.77364C30.911 6.96352 33.115 4.67728 35.8241 4.67728H38.0367V5.6126C38.0367 6.76248 37.6751 7.84848 36.991 8.75346C36.7905 9.0187 36.8353 9.40223 37.091 9.61019C37.3466 9.81807 37.7164 9.77169 37.9169 9.50653C38.765 8.38457 39.2131 7.03805 39.2131 5.6126V4.5065C39.2131 3.92787 38.7592 3.45703 38.2013 3.45703H35.824C32.5938 3.45703 29.9443 6.07986 29.7475 9.3801C28.9177 8.42395 27.7162 7.82155 26.3812 7.82155H24.501C23.9886 7.82155 23.5716 8.25398 23.5716 8.78568V10.1942C23.5716 12.7851 25.6036 14.8929 28.1013 14.8929H29.7344V22.0123L20.5707 16.6226V15.3351H21.4095C22.4902 15.3351 23.3695 14.4229 23.3695 13.3018V12.6995C23.3695 12.0607 22.8685 11.541 22.2528 11.541H21.3543C21.0312 11.541 20.7264 11.6231 20.4574 11.7673C20.187 10.9798 19.4614 10.4144 18.6105 10.4144H17.7121C17.0963 10.4144 16.5953 10.9341 16.5953 11.5729V12.1752C16.5953 13.2962 17.4747 14.2084 18.5554 14.2084H19.3942V14.7249V16.7035L8.99239 22.8214V20.6573V19.9033H9.81093C11.2087 19.9033 12.3458 18.7237 12.3458 17.2739V16.5599C12.3458 15.9441 11.8628 15.4431 11.2692 15.4431H10.3509C9.37005 15.4431 8.51818 16.0244 8.09683 16.8719C7.49265 16.2032 6.6345 15.7841 5.68333 15.7841H4.79279C4.19379 15.7841 3.70648 16.2896 3.70648 16.9109V17.8348C3.70648 19.7276 5.191 21.2674 7.01562 21.2674H7.81596V23.5133L5.52254 24.8622C5.23987 25.0284 5.14073 25.4008 5.30097 25.694C5.46121 25.9872 5.82028 26.0899 6.10288 25.9239L7.81604 24.9163V28.876C7.81604 29.2131 8.07934 29.4862 8.40429 29.4862C8.72925 29.4862 8.99255 29.2131 8.99255 28.876V24.2242L11.186 22.9342L18.8291 27.4296L9.13059 33.1339L1.58884 28.5788L3.72264 27.3238C4.00531 27.1576 4.10445 26.7852 3.94421 26.492C3.78389 26.1988 3.42482 26.0959 3.1423 26.2621L0.544407 27.7901C0.27428 27.949 0.105255 28.2478 0.103529 28.57C0.101803 28.8921 0.267456 29.1929 0.535858 29.355L8.83395 34.3668C8.8345 34.3672 8.83505 34.3675 8.8356 34.3678L19.6136 40.8775C19.7486 40.959 19.8999 40.9998 20.0513 40.9998C20.2027 40.9998 20.354 40.959 20.489 40.8775L34.527 32.3989C34.8078 32.2293 34.9029 31.8557 34.7394 31.5645C34.5759 31.2732 34.2156 31.1745 33.9351 31.3442L30.943 33.1514L21.2145 27.4294L28.8872 22.9166L29.7345 23.4149V28.022C29.7345 28.3591 29.9978 28.6322 30.3228 28.6322C30.6477 28.6322 30.911 28.3591 30.911 28.022V24.1071L38.5139 28.5787L36.2882 29.9231C36.0074 30.0926 35.9123 30.4662 36.0758 30.7574C36.1851 30.9521 36.3821 31.0607 36.5847 31.0607C36.6851 31.0607 36.787 31.034 36.8801 30.9777L39.5669 29.355C39.8353 29.1929 40.0009 28.8921 39.9992 28.57C39.9974 28.2478 39.8285 27.949 39.5583 27.7901ZM32.7877 16.816H34.2061V17.4504C34.2061 18.5238 33.3643 19.3971 32.3295 19.3971H30.911V18.7627C30.911 17.6893 31.753 16.816 32.7877 16.816ZM28.1015 13.6723C26.2525 13.6723 24.7483 12.112 24.7483 10.194V9.04188H26.3813C28.2302 9.04188 29.7345 10.6023 29.7345 12.5202V13.6723H28.1015ZM8.99255 18.0724C8.99255 17.2955 9.60198 16.6634 10.3509 16.6634H11.1695V17.2737C11.1695 18.0507 10.5601 18.6827 9.81109 18.6827H8.99255V18.0724ZM7.01569 20.0468C5.83973 20.0468 4.88307 19.0545 4.88307 17.8346V17.0043H5.68341C6.85938 17.0043 7.81604 17.9967 7.81604 19.2165V20.0468H7.01569ZM21.3546 12.7612H22.1932V13.3016C22.1932 13.7498 21.8418 14.1145 21.4097 14.1145H20.5709V13.574C20.5708 13.1258 20.9225 12.7612 21.3546 12.7612ZM17.772 12.1749V11.6344H18.6107C19.0428 11.6344 19.3943 11.9991 19.3943 12.4473V12.9877H18.5556C18.1235 12.9878 17.772 12.6231 17.772 12.1749ZM29.7661 33.8622L20.0514 39.7297L10.3075 33.8446L20.0219 28.131L29.7661 33.8622ZM20.0218 26.728L12.3786 22.2326L19.3944 18.1062V22.2326C19.3944 22.5697 19.6577 22.8428 19.9827 22.8428C20.3076 22.8428 20.5709 22.5697 20.5709 22.2326V18.0253L27.6946 22.2153L20.0218 26.728Z" fill="#04142C"/>
<path d="M18.5558 35.2589H19.3945V36.6522C19.3945 36.9892 19.6579 37.2624 19.9828 37.2624C20.3078 37.2624 20.5711 36.9892 20.5711 36.6522V35.2589H21.316C22.3345 35.2589 23.1631 34.3995 23.1631 33.343V32.804C23.1631 32.2466 22.7259 31.7931 22.1885 31.7931H21.2416C20.8169 31.7931 20.4255 31.943 20.1132 32.1938C19.7533 31.7486 19.2135 31.4648 18.6109 31.4648H17.7124C17.0967 31.4648 16.5957 31.9846 16.5957 32.6233V33.2257C16.5957 34.3468 17.475 35.2589 18.5558 35.2589ZM21.2416 33.0136H21.9866V33.3431C21.9866 33.7266 21.6858 34.0386 21.316 34.0386H20.5711V33.7092C20.5711 33.3256 20.8719 33.0136 21.2416 33.0136ZM17.7722 32.6853H18.6109C19.043 32.6853 19.3945 33.0498 19.3945 33.4981V34.0385H18.5558C18.1237 34.0385 17.7722 33.674 17.7722 33.2257V32.6853Z" fill="#04142C"/>
<path d="M2.57154 6.33491C3.78704 6.33491 4.80754 5.45524 5.0743 4.27762H8.16139L14.2626 10.6066C14.3775 10.7257 14.5281 10.7853 14.6786 10.7853C14.8292 10.7853 14.9797 10.7257 15.0947 10.6066C15.3244 10.3682 15.3244 9.98191 15.0947 9.74361L8.8211 3.23596C8.71074 3.12157 8.56116 3.05729 8.40508 3.05729H5.07438C4.80754 1.87959 3.78704 1 2.57154 1C1.15361 1 0 2.19657 0 3.66742C0 5.13826 1.15361 6.33491 2.57154 6.33491ZM2.57154 2.22041C3.34075 2.22041 3.96649 2.86959 3.96649 3.66742C3.96649 4.4654 3.34067 5.1145 2.57154 5.1145C1.80234 5.1145 1.17651 4.4654 1.17651 3.66742C1.17651 2.86951 1.80234 2.22041 2.57154 2.22041Z" fill="#04142C"/>
<path d="M8.4052 7.64648H5.19763C4.87268 7.64648 4.60938 7.91961 4.60938 8.25669C4.60938 8.59377 4.87268 8.8669 5.19763 8.8669H8.40527C8.73023 8.8669 8.99353 8.59377 8.99353 8.25669C8.99353 7.91961 8.73015 7.64648 8.4052 7.64648Z" fill="#04142C"/>
<path d="M8.40433 10.1787H1.70935C1.3844 10.1787 1.12109 10.4518 1.12109 10.7889C1.12109 11.126 1.3844 11.3991 1.70935 11.3991H8.40433C8.72928 11.3991 8.99259 11.126 8.99259 10.7889C8.99259 10.4518 8.72928 10.1787 8.40433 10.1787Z" fill="#04142C"/>
<path d="M8.40433 12.71H1.70935C1.3844 12.71 1.12109 12.9831 1.12109 13.3202C1.12109 13.6572 1.3844 13.9304 1.70935 13.9304H8.40433C8.72928 13.9304 8.99259 13.6572 8.99259 13.3202C8.99259 12.9831 8.72928 12.71 8.40433 12.71Z" fill="#04142C"/>
<path d="M1.70935 8.8669H3.07528C3.40023 8.8669 3.66354 8.59377 3.66354 8.25669C3.66354 7.91961 3.40023 7.64648 3.07528 7.64648H1.70935C1.3844 7.64648 1.12109 7.91961 1.12109 8.25669C1.12109 8.59377 1.3844 8.8669 1.70935 8.8669Z" fill="#04142C"/>
</svg>
