<svg width="25" height="24" viewBox="0 0 25 24" fill="none" xmlns="http://www.w3.org/2000/svg">
<path d="M13.75 16.25C14.1642 16.25 14.5 16.5858 14.5 17C14.5 17.4142 14.1642 17.75 13.75 17.75H10.75C10.3358 17.75 10 17.4142 10 17C10 16.5858 10.3358 16.25 10.75 16.25H13.75ZM16.75 11.25C17.1642 11.25 17.5 11.5858 17.5 12C17.5 12.4142 17.1642 12.75 16.75 12.75H7.75C7.33579 12.75 7 12.4142 7 12C7 11.5858 7.33579 11.25 7.75 11.25H16.75ZM19.75 6.25C20.1642 6.25 20.5 6.58579 20.5 7C20.5 7.41421 20.1642 7.75 19.75 7.75H4.75C4.33579 7.75 4 7.41421 4 7C4 6.58579 4.33579 6.25 4.75 6.25H19.75Z" fill="#212121"/>
</svg>
