<svg width="40" height="40" viewBox="0 0 40 40" fill="none" xmlns="http://www.w3.org/2000/svg">
<path d="M35.5148 26.9781L30.328 21.7914C30.2165 21.6798 30.067 21.6145 29.9094 21.6086C29.7518 21.6027 29.5979 21.6567 29.4784 21.7596L27.1694 23.7463L25.3072 21.8841C25.2492 21.8261 25.1803 21.78 25.1045 21.7486C25.0287 21.7172 24.9474 21.701 24.8654 21.701C24.7833 21.701 24.702 21.7172 24.6262 21.7486C24.5504 21.78 24.4815 21.8261 24.4235 21.8841L24.4216 21.886L22.3714 19.8354L35.7562 5.89539C37.6245 3.94014 35.1973 1.61486 33.3285 3.57422L19.9959 17.46L10.5434 8.0075C10.7519 7.44359 10.7936 6.8316 10.6636 6.24462C10.5336 5.65764 10.2374 5.12047 9.81043 4.69727L7.91315 2.80029C7.85513 2.74224 7.78624 2.69619 7.71042 2.66478C7.6346 2.63336 7.55333 2.61719 7.47125 2.61719C7.38918 2.61719 7.30791 2.63336 7.23209 2.66478C7.15627 2.69619 7.08738 2.74224 7.02936 2.80029L2.8042 7.02576C2.74615 7.08378 2.7001 7.15266 2.66868 7.22849C2.63726 7.30431 2.62109 7.38558 2.62109 7.46765C2.62109 7.54972 2.63726 7.63099 2.66868 7.70681C2.7001 7.78264 2.74615 7.85152 2.8042 7.90954L4.70118 9.80652C5.12493 10.2326 5.66204 10.5281 6.24873 10.6579C6.83543 10.7878 7.44707 10.7465 8.01103 10.5391L17.5155 20.0433L11.682 26.1189L6.1294 21.8292C5.9982 21.7279 5.83217 21.6829 5.66777 21.7039C5.50337 21.725 5.35405 21.8104 5.25263 21.9415L3.96356 23.6102C3.9134 23.6752 3.87653 23.7494 3.85504 23.8286C3.83355 23.9077 3.82788 23.9904 3.83833 24.0718C3.84879 24.1532 3.87518 24.2317 3.91599 24.3029C3.9568 24.3741 4.01123 24.4365 4.07618 24.4867L4.47016 24.7911V27.3669C4.47016 27.5327 4.53601 27.6917 4.65322 27.8089C4.77043 27.9261 4.9294 27.9919 5.09516 27.9919C5.26092 27.9919 5.41989 27.9261 5.5371 27.8089C5.65431 27.6917 5.72016 27.5327 5.72016 27.3669V25.7568L6.24261 26.1604V28.6786C6.24261 28.8443 6.30846 29.0033 6.42567 29.1205C6.54288 29.2377 6.70185 29.3036 6.86761 29.3036C7.03337 29.3036 7.19235 29.2377 7.30956 29.1205C7.42677 29.0033 7.49261 28.8443 7.49261 28.6786V27.1261L8.01508 27.5298V30.0201C8.01508 30.1859 8.08092 30.3449 8.19814 30.4621C8.31535 30.5793 8.47432 30.6451 8.64008 30.6451C8.80584 30.6451 8.96481 30.5793 9.08202 30.4621C9.19923 30.3449 9.26508 30.1859 9.26508 30.0201V28.4954L9.78754 28.8991V31.3617C9.78754 31.5275 9.85339 31.6864 9.9706 31.8036C10.0878 31.9208 10.2468 31.9867 10.4125 31.9867C10.5783 31.9867 10.7373 31.9208 10.8545 31.8036C10.9717 31.6864 11.0375 31.5275 11.0375 31.3617V29.8648L11.56 30.2684V32.7332C11.56 32.8989 11.6258 33.0579 11.7431 33.1751C11.8603 33.2923 12.0192 33.3582 12.185 33.3582C12.3508 33.3582 12.5097 33.2923 12.6269 33.1751C12.7442 33.0579 12.81 32.8989 12.81 32.7332V31.2341L13.3325 31.6377V34.0747C13.3325 34.2405 13.3983 34.3994 13.5155 34.5166C13.6327 34.6339 13.7917 34.6997 13.9575 34.6997C14.1232 34.6997 14.2822 34.6339 14.3994 34.5166C14.5166 34.3994 14.5825 34.2405 14.5825 34.0747V32.6035L15.1049 33.0071V35.4163C15.1049 35.582 15.1708 35.741 15.288 35.8582C15.4052 35.9754 15.5642 36.0413 15.7299 36.0413C15.8957 36.0413 16.0547 35.9754 16.1719 35.8582C16.2891 35.741 16.3549 35.582 16.3549 35.4163V33.9728L16.8771 34.3762V36.7578C16.8771 36.9236 16.9429 37.0825 17.0601 37.1998C17.1773 37.317 17.3363 37.3828 17.5021 37.3828C17.6678 37.3828 17.8268 37.317 17.944 37.1998C18.0612 37.0825 18.1271 36.9236 18.1271 36.7578V35.3419C18.8827 35.9256 19.3175 34.9215 20.3405 33.5974C20.4416 33.4662 20.4865 33.3002 20.4654 33.1359C20.4443 32.9716 20.3589 32.8224 20.2279 32.7209L14.3553 28.1841L19.8908 22.4189L21.8899 24.4177L21.8881 24.4196C21.7709 24.5368 21.7051 24.6957 21.7051 24.8615C21.7051 25.0272 21.7709 25.1861 21.8881 25.3033L23.7504 27.1657L21.7636 29.4745C21.6607 29.594 21.6068 29.748 21.6127 29.9055C21.6186 30.0631 21.6838 30.2126 21.7953 30.3241L26.9824 35.5109C28.7867 37.3157 34.0032 38.3136 36.1602 36.1566C38.3184 33.9984 37.3187 28.7824 35.5148 26.9781ZM7.47126 4.12598L8.13688 4.79149L4.79517 8.13294L4.12988 7.46765L7.47126 4.12598ZM5.68853 9.00719L9.01155 5.68438C9.33364 6.04841 9.50425 6.52187 9.4884 7.00768C9.47256 7.49349 9.27146 7.95483 8.92633 8.2971L8.30133 8.92272C7.95709 9.26434 7.49627 9.46295 7.01154 9.47862C6.52681 9.49429 6.05412 9.32586 5.68853 9.00719ZM9.10864 9.86919C9.4539 9.54494 9.56347 9.43402 9.87306 9.10469L19.1301 18.3617L18.3813 19.1416L9.10864 9.86919ZM18.4442 34.0076C16.7093 32.6673 6.56406 24.8295 5.33503 23.88L5.85993 23.2001L18.9691 33.3276L18.4442 34.0076ZM12.6767 26.8873L34.2312 4.43848C34.4293 4.23129 34.788 3.85829 35.0905 4.16077C35.3935 4.46376 35.054 4.82133 34.8534 5.03113L13.3607 27.4157L12.6767 26.8873ZM20.7567 21.5172L21.5056 20.7372L23.5378 22.7698L22.7737 23.5339L20.7567 21.5172ZM24.8654 23.2098L29.2089 27.5537C30.1049 28.4497 28.4358 30.0816 27.5579 29.2053L23.2137 24.8615L24.8654 23.2098ZM35.2764 35.2728C33.6855 36.8628 29.2663 36.0272 27.8661 34.6271L23.0892 29.8505L24.6367 28.052L26.6739 30.0891C28.7298 32.1467 32.1499 28.7282 30.093 26.6699L28.0558 24.6326L29.8541 23.0853L34.631 27.8619C36.0311 29.2627 36.867 33.6822 35.2764 35.2728Z" fill="#04142C"/>
</svg>
