<svg width="24" height="24" viewBox="0 0 24 24" fill="none" xmlns="http://www.w3.org/2000/svg">
<g clip-path="url(#clip0_339_10584)">
<path d="M23.7803 11.093L14.453 1.76524C13.1002 0.412887 10.8999 0.412887 9.54703 1.76524L0.219752 11.093C-0.07322 11.386 -0.07322 11.8608 0.219752 12.1538C0.512254 12.4468 0.987572 12.4468 1.28007 12.1538L1.87492 11.5589V21.0934C1.87492 22.2843 2.84032 23.2497 4.03119 23.2497H7.78123C8.04012 23.2497 8.24999 23.0398 8.24999 22.7809V15.8434C8.24999 14.5489 9.29934 13.4996 10.5938 13.4996H13.4063C14.7007 13.4996 15.7501 14.5489 15.7501 15.8434V22.7809C15.7501 23.0398 15.9599 23.2497 16.2188 23.2497H19.9688C21.1597 23.2497 22.1251 22.2843 22.1251 21.0934V11.5589L22.72 12.1538C22.8662 12.3 23.0584 12.3736 23.2501 12.3736C23.4419 12.3736 23.634 12.3 23.7803 12.1538C24.0733 11.8608 24.0733 11.386 23.7803 11.093V11.093Z" fill="#0A6BFE"/>
</g>
<defs>
<clipPath id="clip0_339_10584">
<rect width="24" height="24" fill="white"/>
</clipPath>
</defs>
</svg>
