<svg width="40" height="40" viewBox="0 0 40 40" fill="none" xmlns="http://www.w3.org/2000/svg">
<g clip-path="url(#clip0_645_24643)">
<path d="M39 39.4375C38.9375 39.4375 38.875 39.4375 38.75 39.375C26.25 32.6875 13.625 32.6875 1.3125 39.375C1.0625 39.5 0.8125 39.4375 0.6875 39.1875C0.5625 38.9375 0.625 38.6875 0.875 38.5625C13.5 31.6875 26.375 31.6875 39.1875 38.5625C39.4375 38.6875 39.5 38.9375 39.375 39.1875C39.3125 39.375 39.125 39.4375 39 39.4375Z" fill="black"/>
<path d="M20 15.75H19.3125C16.1875 15.75 13.625 13.1875 13.625 10.0625V9.375C13.625 9.125 13.8125 8.875 14.125 8.875H14.8125C17.9375 8.875 20.5 11.4375 20.5 14.5625V15.25C20.5 15.5625 20.25 15.75 20 15.75ZM14.5625 9.875V10.0625C14.5625 12.6875 16.6875 14.8125 19.3125 14.8125H19.5V14.625C19.5 12 17.375 9.875 14.75 9.875H14.5625Z" fill="black"/>
<path d="M20 22.5H19.3125C16.1875 22.5 13.625 19.9375 13.625 16.8125V16.125C13.625 15.875 13.8125 15.625 14.125 15.625H14.8125C17.9375 15.625 20.5 18.1875 20.5 21.3125V22C20.5 22.25 20.25 22.5 20 22.5ZM14.5625 16.5625V16.75C14.5625 19.375 16.6875 21.5 19.3125 21.5H19.5V21.3125C19.5 18.6875 17.375 16.5625 14.75 16.5625H14.5625Z" fill="black"/>
<path d="M20 29.125H19.3125C16.1875 29.125 13.625 26.5625 13.625 23.4375V22.75C13.625 22.5 13.8125 22.25 14.125 22.25H14.8125C17.9375 22.25 20.5 24.8125 20.5 27.9375V28.625C20.5 28.9375 20.25 29.125 20 29.125ZM14.5625 23.25V23.4375C14.5625 26.0625 16.6875 28.1875 19.3125 28.1875H19.5V28C19.5 25.375 17.375 23.25 14.75 23.25H14.5625Z" fill="black"/>
<path d="M20.6875 15.75H20C19.75 15.75 19.5 15.5625 19.5 15.25V14.5625C19.5 11.4375 22.0625 8.875 25.1875 8.875H25.875C26.125 8.875 26.375 9.0625 26.375 9.375V10.0625C26.375 13.1875 23.8125 15.75 20.6875 15.75ZM20.5 14.8125H20.6875C23.3125 14.8125 25.4375 12.6875 25.4375 10.0625V9.875H25.25C22.625 9.875 20.5 12 20.5 14.625V14.8125Z" fill="black"/>
<path d="M20.6875 22.5H20C19.75 22.5 19.5 22.3125 19.5 22V21.3125C19.5 18.1875 22.0625 15.625 25.1875 15.625H25.875C26.125 15.625 26.375 15.8125 26.375 16.125V16.8125C26.375 19.9375 23.8125 22.5 20.6875 22.5ZM20.5 21.5625H20.6875C23.3125 21.5625 25.4375 19.4375 25.4375 16.8125V16.625H25.25C22.625 16.625 20.5 18.75 20.5 21.375V21.5625Z" fill="black"/>
<path d="M20.6875 29.125H20C19.75 29.125 19.5 28.9375 19.5 28.625V27.9375C19.5 24.8125 22.0625 22.25 25.1875 22.25H25.875C26.125 22.25 26.375 22.4375 26.375 22.75V23.4375C26.375 26.5625 23.8125 29.125 20.6875 29.125ZM20.5 28.1875H20.6875C23.3125 28.1875 25.4375 26.0625 25.4375 23.4375V23.25H25.25C22.625 23.25 20.5 25.375 20.5 28V28.1875Z" fill="black"/>
<path d="M20 9.9375C19.875 9.9375 19.75 9.875 19.6875 9.8125L19.1875 9.3125C16.9375 7.0625 16.9375 3.5 19.1875 1.25L19.6875 0.75C19.875 0.5625 20.125 0.5625 20.3125 0.75L20.8125 1.1875C23 3.4375 23 7 20.875 9.3125L20.375 9.8125C20.25 9.875 20.125 9.9375 20 9.9375ZM20 1.75L19.8125 1.9375C17.9375 3.8125 17.9375 6.8125 19.8125 8.6875L19.9375 8.8125L20.0625 8.6875C21.875 6.75 21.875 3.75 20.0625 1.875L20 1.75Z" fill="black"/>
<path d="M20 34.3125C19.75 34.3125 19.5 34.125 19.5 33.8125V9.375C19.5 9.125 19.6875 8.875 20 8.875C20.3125 8.875 20.5 9.0625 20.5 9.375V33.8125C20.5 34.0625 20.25 34.3125 20 34.3125Z" fill="black"/>
<path d="M7 19.625H6.3125C3.1875 19.625 0.625 17.0625 0.625 13.9375V13.25C0.625 13 0.8125 12.75 1.125 12.75H1.75C4.8125 12.75 7.3125 15.1875 7.4375 18.1875C7.5 18.25 7.5 18.3125 7.5 18.375V19.0625C7.4375 19.4375 7.25 19.625 7 19.625ZM1.5625 13.75V13.9375C1.5625 16.5625 3.6875 18.6875 6.3125 18.6875H6.5C6.4375 18.625 6.4375 18.5625 6.4375 18.5C6.4375 15.875 4.3125 13.75 1.6875 13.75H1.5625Z" fill="black"/>
<path d="M7 26.375H6.3125C3.1875 26.375 0.625 23.8125 0.625 20.6875V20C0.625 19.75 0.8125 19.5 1.125 19.5H1.75C4.8125 19.5 7.3125 21.9375 7.4375 24.9375C7.5 25 7.5 25.0625 7.5 25.125V25.8125C7.4375 26.125 7.25 26.375 7 26.375ZM1.5625 20.5V20.6875C1.5625 23.3125 3.6875 25.4375 6.3125 25.4375H6.5C6.4375 25.375 6.4375 25.3125 6.4375 25.25C6.4375 22.625 4.3125 20.5 1.6875 20.5H1.5625Z" fill="black"/>
<path d="M7 33.0625H6.3125C3.1875 33.0625 0.625 30.5 0.625 27.375V26.6875C0.625 26.4375 0.8125 26.25 1.0625 26.25H1.6875C4.75 26.25 7.25 28.6875 7.375 31.6875C7.4375 31.75 7.4375 31.8125 7.4375 31.875V32.5625C7.4375 32.875 7.25 33.0625 7 33.0625ZM1.5625 27.1875V27.375C1.5625 30 3.6875 32.125 6.3125 32.125H6.5C6.4375 32.0625 6.4375 32 6.4375 31.9375C6.4375 29.3125 4.3125 27.1875 1.6875 27.1875H1.5625Z" fill="black"/>
<path d="M7.5625 19.625H6.875C6.625 19.625 6.375 19.4375 6.375 19.125V18.4375C6.375 15.3125 8.9375 12.75 12.0625 12.75H12.75C13 12.75 13.25 12.9375 13.25 13.25V13.9375C13.25 17.0625 10.6875 19.625 7.5625 19.625ZM7.375 18.6875H7.5625C10.1875 18.6875 12.3125 16.5625 12.3125 13.9375V13.75H12.125C9.5 13.75 7.375 15.875 7.375 18.5V18.6875Z" fill="black"/>
<path d="M7.5625 26.375H6.875C6.625 26.375 6.375 26.1875 6.375 25.875V25.1875C6.375 22.0625 8.9375 19.5 12.0625 19.5H12.75C13 19.5 13.25 19.6875 13.25 20V20.6875C13.25 23.8125 10.6875 26.375 7.5625 26.375ZM7.375 25.4375H7.5625C10.1875 25.4375 12.3125 23.3125 12.3125 20.6875V20.5H12.125C9.5 20.5 7.375 22.625 7.375 25.25V25.4375Z" fill="black"/>
<path d="M7.5625 33.0625H6.875C6.625 33.0625 6.375 32.875 6.375 32.5625V31.875C6.375 28.75 8.9375 26.1875 12.0625 26.1875H12.75C13 26.1875 13.25 26.375 13.25 26.6875V27.375C13.25 30.5 10.6875 33.0625 7.5625 33.0625ZM7.375 32.125H7.5625C10.1875 32.125 12.3125 30 12.3125 27.375V27.1875H12.125C9.5 27.1875 7.375 29.3125 7.375 31.9375V32.125Z" fill="black"/>
<path d="M6.9375 13.75C6.8125 13.75 6.6875 13.6875 6.625 13.625L6.0625 13.125C3.8125 10.875 3.8125 7.3125 6.0625 5.0625L6.5625 4.5625C6.625 4.5 6.75 4.4375 6.875 4.4375C7 4.4375 7.125 4.5 7.1875 4.5625L7.6875 5.0625C8.8125 6.1875 9.375 7.625 9.375 9.125C9.375 10.625 8.75 12.0625 7.6875 13.0625L7.1875 13.5625C7.125 13.6875 7.0625 13.75 6.9375 13.75ZM6.9375 5.5625L6.8125 5.6875C4.9375 7.5625 4.9375 10.5625 6.8125 12.4375L6.9375 12.5625L7.0625 12.4375C7.9375 11.5625 8.4375 10.375 8.5 9.125C8.5 7.8125 8 6.625 7.0625 5.6875L6.9375 5.5625Z" fill="black"/>
<path d="M6.9375 36.5625C6.6875 36.5625 6.4375 36.375 6.4375 36.0625V13.25C6.4375 13 6.625 12.75 6.9375 12.75C7.25 12.75 7.4375 12.9375 7.4375 13.25V36.125C7.375 36.375 7.1875 36.5625 6.9375 36.5625Z" fill="black"/>
<path d="M33.0625 19.625H32.375C29.25 19.625 26.6875 17.0625 26.6875 13.9375V13.25C26.6875 13 26.875 12.75 27.1875 12.75H27.875C31 12.75 33.5625 15.3125 33.5625 18.4375V19.125C33.5625 19.4375 33.375 19.625 33.0625 19.625ZM27.6875 13.75V13.9375C27.6875 16.5625 29.8125 18.6875 32.4375 18.6875H32.625V18.5C32.625 15.875 30.5 13.75 27.875 13.75H27.6875Z" fill="black"/>
<path d="M33.0625 26.375H32.375C29.25 26.375 26.6875 23.8125 26.6875 20.6875V20C26.6875 19.75 26.875 19.5 27.1875 19.5H27.875C31 19.5 33.5625 22.0625 33.5625 25.1875V25.875C33.5625 26.125 33.375 26.375 33.0625 26.375ZM27.6875 20.5V20.6875C27.6875 23.3125 29.8125 25.4375 32.4375 25.4375H32.625V25.25C32.625 22.625 30.5 20.5 27.875 20.5H27.6875Z" fill="black"/>
<path d="M33.0625 33.0625H32.375C29.25 33.0625 26.6875 30.5 26.6875 27.375V26.6875C26.6875 26.4375 26.875 26.1875 27.1875 26.1875H27.875C31 26.1875 33.5625 28.75 33.5625 31.875V32.5625C33.5625 32.875 33.375 33.0625 33.0625 33.0625ZM27.6875 27.1875V27.375C27.6875 30 29.8125 32.125 32.4375 32.125H32.625V31.9375C32.625 29.3125 30.5 27.1875 27.875 27.1875H27.6875Z" fill="black"/>
<path d="M33.75 19.625H33.0625C32.8125 19.625 32.5625 19.4375 32.5625 19.125V18.4375C32.5625 15.3125 35.125 12.75 38.25 12.75H38.9375C39.1875 12.75 39.4375 12.9375 39.4375 13.25V13.9375C39.4375 17.0625 36.875 19.625 33.75 19.625ZM33.5625 18.6875H33.75C36.375 18.6875 38.5 16.5625 38.5 13.9375V13.75H38.3125C35.6875 13.75 33.5625 15.875 33.5625 18.5V18.6875Z" fill="black"/>
<path d="M33.75 26.375H33.0625C32.8125 26.375 32.5625 26.1875 32.5625 25.875V25.1875C32.5625 22.0625 35.125 19.5 38.25 19.5H38.9375C39.1875 19.5 39.4375 19.6875 39.4375 20V20.6875C39.4375 23.8125 36.875 26.375 33.75 26.375ZM33.5625 25.4375H33.75C36.375 25.4375 38.5 23.3125 38.5 20.6875V20.5H38.3125C35.6875 20.5 33.5625 22.625 33.5625 25.25V25.4375Z" fill="black"/>
<path d="M33.75 33.0625H33.0625C32.8125 33.0625 32.5625 32.875 32.5625 32.5625V31.875C32.5625 28.75 35.125 26.1875 38.25 26.1875H38.9375C39.1875 26.1875 39.4375 26.375 39.4375 26.6875V27.375C39.4375 30.5 36.875 33.0625 33.75 33.0625ZM33.5625 32.125H33.75C36.375 32.125 38.5 30 38.5 27.375V27.1875H38.3125C35.6875 27.1875 33.5625 29.3125 33.5625 31.9375V32.125Z" fill="black"/>
<path d="M33 13.75C32.875 13.75 32.75 13.6875 32.6875 13.625L32.1875 13.125C29.9375 10.875 29.9375 7.3125 32.1875 5.0625L32.6875 4.5625C32.75 4.5 32.875 4.4375 33 4.4375C33.125 4.4375 33.25 4.5 33.3125 4.5625L33.8125 5.0625C34.9375 6.1875 35.5 7.625 35.5 9.125C35.5 10.625 34.875 12.0625 33.8125 13.0625L33.3125 13.5625C33.25 13.6875 33.125 13.75 33 13.75ZM33 5.5625L32.875 5.6875C31 7.5625 31 10.5625 32.875 12.4375L33 12.5625L33.125 12.4375C34 11.5625 34.5 10.375 34.5625 9.125C34.5625 7.8125 34.0625 6.625 33.125 5.6875L33 5.5625Z" fill="black"/>
<path d="M33.0625 36.5625C32.8125 36.5625 32.5625 36.375 32.5625 36.0625V13.25C32.5625 13 32.75 12.75 33.0625 12.75C33.375 12.75 33.5625 12.9375 33.5625 13.25V36.125C33.5625 36.375 33.375 36.5625 33.0625 36.5625Z" fill="black"/>
</g>
<defs>
<clipPath id="clip0_645_24643">
<rect width="40" height="40" fill="white"/>
</clipPath>
</defs>
</svg>
