<svg width="24" height="24" viewBox="0 0 24 24" fill="none" xmlns="http://www.w3.org/2000/svg">
<g clip-path="url(#clip0_339_10561)">
<path d="M19.9688 23.249H4.03125C2.84231 23.249 1.875 22.2817 1.875 21.0927V9.74805C1.875 9.33386 2.21077 8.99805 2.625 8.99805C3.03923 8.99805 3.375 9.33386 3.375 9.74805V21.0927C3.375 21.4546 3.66938 21.749 4.03125 21.749H19.9688C20.3306 21.749 20.625 21.4546 20.625 21.0927V9.74805C20.625 9.33386 20.9608 8.99805 21.375 8.99805C21.7892 8.99805 22.125 9.33386 22.125 9.74805V21.0927C22.125 22.2817 21.1577 23.249 19.9688 23.249Z" fill="black"/>
<path d="M23.25 12.3732C23.058 12.3732 22.8661 12.3 22.7197 12.1535L13.3921 2.82599C12.6245 2.05837 11.3755 2.05837 10.6079 2.82599L1.28034 12.1536C0.987468 12.4465 0.512578 12.4465 0.219703 12.1536C-0.073219 11.8607 -0.073219 11.3858 0.219703 11.0929L9.54727 1.7653C10.8997 0.412867 13.1003 0.412867 14.4527 1.7653L23.7803 11.0929C24.0732 11.3858 24.0732 11.8606 23.7803 12.1535C23.6339 12.3 23.442 12.3732 23.25 12.3732V12.3732Z" fill="black"/>
<path d="M15 23.249H9C8.58577 23.249 8.25 22.9132 8.25 22.499V15.8428C8.25 14.5504 9.30141 13.499 10.5938 13.499H13.4062C14.6986 13.499 15.75 14.5504 15.75 15.8428V22.499C15.75 22.9132 15.4142 23.249 15 23.249ZM9.75 21.749H14.25V15.8428C14.25 15.3775 13.8715 14.999 13.4062 14.999H10.5938C10.1285 14.999 9.75 15.3775 9.75 15.8428V21.749Z" fill="black"/>
</g>
<defs>
<clipPath id="clip0_339_10561">
<rect width="24" height="24" fill="white"/>
</clipPath>
</defs>
</svg>
