<svg width="32" height="32" viewBox="0 0 32 32" fill="none" xmlns="http://www.w3.org/2000/svg">
<g clip-path="url(#clip0_361_11765)">
<path d="M28.6667 28H3.33333C1.496 28 0 26.504 0 24.6667V7.33333C0 5.496 1.496 4 3.33333 4H28.6667C30.504 4 32 5.496 32 7.33333V24.6667C32 26.504 30.504 28 28.6667 28ZM3.33333 5.33333C2.23067 5.33333 1.33333 6.23067 1.33333 7.33333V24.6667C1.33333 25.7693 2.23067 26.6667 3.33333 26.6667H28.6667C29.7693 26.6667 30.6667 25.7693 30.6667 24.6667V7.33333C30.6667 6.23067 29.7693 5.33333 28.6667 5.33333H3.33333Z" fill="black"/>
<path d="M9.99984 16.0002C8.1625 16.0002 6.6665 14.5042 6.6665 12.6668C6.6665 10.8295 8.1625 9.3335 9.99984 9.3335C11.8372 9.3335 13.3332 10.8295 13.3332 12.6668C13.3332 14.5042 11.8372 16.0002 9.99984 16.0002ZM9.99984 10.6668C8.89717 10.6668 7.99984 11.5642 7.99984 12.6668C7.99984 13.7695 8.89717 14.6668 9.99984 14.6668C11.1025 14.6668 11.9998 13.7695 11.9998 12.6668C11.9998 11.5642 11.1025 10.6668 9.99984 10.6668Z" fill="black"/>
<path d="M15.3333 22.6668C14.9653 22.6668 14.6667 22.3682 14.6667 22.0002V20.6668C14.6667 19.5642 13.7693 18.6668 12.6667 18.6668H7.33333C6.23067 18.6668 5.33333 19.5642 5.33333 20.6668V22.0002C5.33333 22.3682 5.03467 22.6668 4.66667 22.6668C4.29867 22.6668 4 22.3682 4 22.0002V20.6668C4 18.8295 5.496 17.3335 7.33333 17.3335H12.6667C14.504 17.3335 16 18.8295 16 20.6668V22.0002C16 22.3682 15.7013 22.6668 15.3333 22.6668Z" fill="black"/>
<path d="M27.3332 11.9998H19.3332C18.9652 11.9998 18.6665 11.7012 18.6665 11.3332C18.6665 10.9652 18.9652 10.6665 19.3332 10.6665H27.3332C27.7012 10.6665 27.9998 10.9652 27.9998 11.3332C27.9998 11.7012 27.7012 11.9998 27.3332 11.9998Z" fill="black"/>
<path d="M27.3332 17.3333H19.3332C18.9652 17.3333 18.6665 17.0347 18.6665 16.6667C18.6665 16.2987 18.9652 16 19.3332 16H27.3332C27.7012 16 27.9998 16.2987 27.9998 16.6667C27.9998 17.0347 27.7012 17.3333 27.3332 17.3333Z" fill="black"/>
<path d="M27.3332 22.6668H19.3332C18.9652 22.6668 18.6665 22.3682 18.6665 22.0002C18.6665 21.6322 18.9652 21.3335 19.3332 21.3335H27.3332C27.7012 21.3335 27.9998 21.6322 27.9998 22.0002C27.9998 22.3682 27.7012 22.6668 27.3332 22.6668Z" fill="black"/>
</g>
<defs>
<clipPath id="clip0_361_11765">
<rect width="32" height="32" fill="white"/>
</clipPath>
</defs>
</svg>
