<svg width="32" height="32" viewBox="0 0 32 32" fill="none" xmlns="http://www.w3.org/2000/svg">
<g clip-path="url(#clip0_681_30642)">
<path d="M16 0.000976562C7.1776 0.000976562 0 7.17829 0 16.0001C0 24.8221 7.1776 31.9993 16 31.9993C24.8224 31.9993 32 24.8221 32 16.0001C32 7.17829 24.8224 0.000976562 16 0.000976562ZM16 29.0903C8.78167 29.0903 2.90909 23.2181 2.90909 16.0002C2.90909 8.78226 8.78167 2.91007 16 2.91007C23.2183 2.91007 29.0909 8.78226 29.0909 16.0001C29.0909 23.2182 23.2183 29.0903 16 29.0903Z" fill="black"/>
<path d="M15.9995 12.6074C15.1962 12.6074 14.5449 13.2587 14.5449 14.062V23.7573C14.5449 24.5606 15.1962 25.2118 15.9995 25.2118C16.8028 25.2118 17.454 24.5606 17.454 23.7573V14.062C17.454 13.2588 16.8028 12.6074 15.9995 12.6074Z" fill="black"/>
<path d="M15.9995 6.78906C15.6164 6.78906 15.242 6.94421 14.9706 7.21476C14.7001 7.4853 14.5449 7.86058 14.5449 8.24361C14.5449 8.62664 14.7001 9.00094 14.9706 9.27246C15.2412 9.543 15.6164 9.69815 15.9995 9.69815C16.3825 9.69815 16.7568 9.543 17.0282 9.27246C17.2988 9.00094 17.454 8.62664 17.454 8.24361C17.454 7.86058 17.2988 7.4853 17.0282 7.21476C16.7568 6.94412 16.3825 6.78906 15.9995 6.78906Z" fill="black"/>
</g>
<defs>
<clipPath id="clip0_681_30642">
<rect width="32" height="32" fill="white"/>
</clipPath>
</defs>
</svg>
