<svg width="33" height="32" viewBox="0 0 33 32" fill="none" xmlns="http://www.w3.org/2000/svg">
<path d="M25.2351 8.48258C24.4769 6.98754 23.3549 5.70711 21.9725 4.75901C20.59 3.81091 18.9914 3.22556 17.3235 3.05677C16.5691 2.98108 15.8089 2.98108 15.0544 3.05677C13.3867 3.22567 11.7881 3.811 10.4055 4.75899C9.02302 5.70698 7.90092 6.98722 7.14234 8.48207C6.18793 10.3894 5.81928 12.5365 6.08282 14.653C6.34637 16.7695 7.23032 18.7606 8.62334 20.3757L15.4162 28.6345C15.51 28.7486 15.628 28.8405 15.7615 28.9036C15.8951 28.9667 16.041 28.9995 16.1887 28.9995C16.3365 28.9995 16.4824 28.9667 16.6159 28.9036C16.7495 28.8405 16.8674 28.7486 16.9612 28.6345L23.7541 20.3757C25.1471 18.7607 26.0311 16.7697 26.2946 14.6533C26.5582 12.5369 26.1895 10.3898 25.2351 8.48258ZM16.1887 16.9992C15.3976 16.9992 14.6243 16.7646 13.9665 16.3251C13.3087 15.8855 12.796 15.2608 12.4932 14.5299C12.1905 13.799 12.1113 12.9947 12.2656 12.2188C12.4199 11.4429 12.8009 10.7302 13.3603 10.1707C13.9197 9.61134 14.6325 9.23037 15.4084 9.07603C16.1843 8.92169 16.9886 9.00091 17.7195 9.30366C18.4504 9.60641 19.0751 10.1191 19.5146 10.7769C19.9541 11.4347 20.1887 12.208 20.1887 12.9992C20.1875 14.0597 19.7657 15.0764 19.0158 15.8262C18.2659 16.5761 17.2492 16.9979 16.1887 16.9992Z" fill="#007DF0"/>
</svg>
