<svg width="32" height="32" viewBox="0 0 32 32" fill="none" xmlns="http://www.w3.org/2000/svg">
<path d="M6.00904 8.01043C4.80165 8.77713 4 10.1283 4 11.6667V20.3333C4 24.1993 7.134 27.3333 11 27.3333H19.6667C21.2051 27.3333 22.5563 26.5317 23.3252 25.3233L23.1623 25.3309L23 25.3333H11C8.23857 25.3333 6 23.0948 6 20.3333V8.33333C6 8.22496 6.00304 8.11731 6.00904 8.01043ZM11.6667 4C9.27343 4 7.33333 5.94009 7.33333 8.33333V19.6667C7.33333 22.0599 9.27343 24 11.6667 24H23C25.3932 24 27.3333 22.0599 27.3333 19.6667V8.33333C27.3333 5.94009 25.3932 4 23 4H11.6667ZM17.9079 16.1831L18.0307 16.2849L23.7727 21.8691C23.5308 21.9539 23.2708 22 23 22H11.6667C11.3958 22 11.1358 21.9539 10.894 21.8691L16.6365 16.2849C16.9859 15.9453 17.5213 15.9113 17.9079 16.1831ZM11.6667 6H23C24.2887 6 25.3333 7.04467 25.3333 8.33333V19.6667C25.3333 19.9451 25.2845 20.212 25.1952 20.4596L19.4249 14.8509C18.3187 13.7755 16.5904 13.7217 15.422 14.6896L15.2424 14.8509L9.47199 20.4609C9.38225 20.2129 9.33333 19.9456 9.33333 19.6667V8.33333C9.33333 7.04467 10.378 6 11.6667 6ZM13.9995 9.00155C13.0795 9.00155 12.3337 9.74731 12.3337 10.6673C12.3337 11.5872 13.0795 12.333 13.9995 12.333C14.9193 12.333 15.6651 11.5872 15.6651 10.6673C15.6651 9.74731 14.9193 9.00155 13.9995 9.00155Z" fill="#212121"/>
</svg>
