<svg width="24" height="24" viewBox="0 0 24 24" fill="none" xmlns="http://www.w3.org/2000/svg">
<path d="M18.3891 1.96875H17.1094V0.684375C17.1094 0.304688 16.8 0 16.425 0C16.0453 0 15.7406 0.309375 15.7406 0.684375V1.96875H12.3V0.684375C12.3 0.304688 11.9906 0 11.6156 0C11.2266 0 10.9219 0.309375 10.9219 0.684375V1.96875H7.26563V0.684375C7.26563 0.309375 6.96094 0 6.58126 0C6.20157 0 5.89688 0.309375 5.89688 0.684375V1.96875H4.61251C3.15001 1.96875 1.95938 3.15937 1.95938 4.62187V21.3469C1.95938 22.8094 3.15001 24 4.61251 24H18.3844C19.8469 24 21.0375 22.8094 21.0375 21.3469V4.62187C21.0422 3.15937 19.8516 1.96875 18.3891 1.96875Z" fill="#0A6BFE"/>
<path d="M17.4047 16.7246H6.58126C6.20157 16.7246 5.89688 17.034 5.89688 17.409C5.89688 17.784 6.20626 18.0934 6.58126 18.0934H17.4047C17.7844 18.0934 18.0891 17.784 18.0891 17.409C18.0891 17.034 17.7797 16.7246 17.4047 16.7246Z" fill="white"/>
<path d="M5.89688 13.4764C5.89688 13.8561 6.20626 14.1608 6.58126 14.1608H17.4047C17.7844 14.1608 18.0891 13.8514 18.0891 13.4764C18.0891 13.1014 17.7797 12.792 17.4047 12.792H6.58126C6.20157 12.7874 5.89688 13.0967 5.89688 13.4764Z" fill="white"/>
<path d="M6.58126 10.2281H12.4828C12.8625 10.2281 13.1672 9.91875 13.1672 9.54375C13.1672 9.16406 12.8578 8.85938 12.4828 8.85938H6.58126C6.20157 8.85938 5.89688 9.16875 5.89688 9.54375C5.89688 9.91875 6.20157 10.2281 6.58126 10.2281Z" fill="white"/>
</svg>
