<svg width="24" height="24" viewBox="0 0 24 24" fill="none" xmlns="http://www.w3.org/2000/svg">
<path d="M11.9876 2C13.4351 2 14.7878 2.40687 15.9353 3.11448C15.5934 3.47975 15.329 3.91821 15.1682 4.40375C14.2457 3.83007 13.1554 3.49959 11.9876 3.49959C8.66297 3.49959 5.97997 6.17312 5.97949 9.49797V13.9064L4.63369 16.9997H19.3502L17.9958 13.9074L17.9959 9.51082L17.9921 9.28568C17.9884 9.17734 17.9818 9.06977 17.9725 8.96302C18.1435 8.98862 18.3185 9.00189 18.4966 9.00189C18.8347 9.00189 19.1616 8.95409 19.4709 8.86489C19.4816 8.99138 19.4892 9.1188 19.4936 9.24709L19.4978 9.49797V13.5939L20.8797 16.749C20.9489 16.9069 20.9846 17.0774 20.9846 17.2497C20.9846 17.9398 20.4241 18.4993 19.7329 18.4993L14.9917 18.5008C14.9917 20.1572 13.6467 21.5 11.9876 21.5C10.3878 21.5 9.08004 20.2514 8.98867 18.6771L8.98312 18.4986L4.25202 18.4993C4.08044 18.4993 3.9107 18.4641 3.75334 18.3959C3.11928 18.1209 2.82853 17.3848 3.10394 16.7518L4.47746 13.5948V9.49786C4.47805 5.34419 7.8341 2 11.9876 2ZM13.4892 18.4986L10.4856 18.5008C10.4856 19.329 11.1581 20.0004 11.9876 20.0004C12.7684 20.0004 13.41 19.4057 13.4828 18.6452L13.4892 18.4986ZM16.033 5.05656C16.1282 4.52942 16.3889 4.05974 16.7595 3.7031C17.2097 3.26992 17.822 3.00351 18.4966 3.00351C19.8792 3.00351 21 4.12249 21 5.50283C21 6.59572 20.2974 7.52477 19.3185 7.86432C19.0611 7.95363 18.7845 8.00216 18.4966 8.00216C18.2482 8.00216 18.0083 7.96604 17.7818 7.89878C16.7475 7.59166 15.9932 6.63518 15.9932 5.50283C15.9932 5.35051 16.0069 5.20137 16.033 5.05656Z" fill="white"/>
</svg>
