<svg width="37" height="37" viewBox="0 0 37 37" fill="none" xmlns="http://www.w3.org/2000/svg">
<path d="M20.0493 20.0495L34.8984 20.0495C35.6426 20.0494 36.2458 19.4462 36.2458 18.7021C36.2458 17.958 35.6425 17.3547 34.8984 17.3547L20.0493 17.3547L20.0493 2.50557C20.0493 1.76141 19.446 1.15818 18.7019 1.15822C17.9578 1.15825 17.3545 1.76145 17.3545 2.50558L17.3545 17.3547L2.50543 17.3547C1.76128 17.3547 1.15804 17.9579 1.15808 18.702C1.15808 19.4462 1.76135 20.0494 2.50544 20.0494L17.3545 20.0494L17.3545 34.8985C17.3545 35.6426 17.9578 36.2459 18.7019 36.2459C19.446 36.2458 20.0493 35.6426 20.0493 34.8985L20.0493 20.0495Z" fill="#FDFDFD"/>
</svg>
