<svg width="32" height="32" viewBox="0 0 32 32" fill="none" xmlns="http://www.w3.org/2000/svg">
<g clip-path="url(#clip0_680_29253)">
<path d="M16 10C12.692 10 10 12.692 10 16C10 19.308 12.692 22 16 22C19.308 22 22 19.308 22 16C22 12.692 19.308 10 16 10ZM16 20C13.794 20 12 18.206 12 16C12 13.794 13.794 12 16 12C18.206 12 20 13.794 20 16C20 18.206 18.206 20 16 20Z" fill="black"/>
<path d="M31 15H27.95C27.466 9.18 22.82 4.534 17 4.05V1C17 0.448 16.552 0 16 0C15.448 0 15 0.448 15 1V4.05C9.18 4.534 4.534 9.182 4.05 15H1C0.448 15 0 15.448 0 16C0 16.552 0.448 17 1 17H4.05C4.534 22.82 9.18 27.466 15 27.95V31C15 31.552 15.448 32 16 32C16.552 32 17 31.552 17 31V27.95C22.82 27.466 27.466 22.82 27.95 17H31C31.552 17 32 16.554 32 16C32 15.45 31.552 15 31 15ZM16 26C10.486 26 6 21.514 6 16C6 10.486 10.486 6 16 6C21.514 6 26 10.486 26 16C26 21.514 21.514 26 16 26Z" fill="black"/>
</g>
<defs>
<clipPath id="clip0_680_29253">
<rect width="32" height="32" fill="white"/>
</clipPath>
</defs>
</svg>
