<svg width="22" height="24" viewBox="0 0 22 24" fill="none" xmlns="http://www.w3.org/2000/svg">
<path d="M18.9464 11.154C19.1436 13.0085 18.6869 14.8737 17.6553 16.4274C16.6237 17.9811 15.0818 19.1258 13.2961 19.6637C11.5103 20.2016 9.5928 20.099 7.87465 19.3736C6.15649 18.6482 4.7456 17.3456 3.88566 15.6907C3.02571 14.0357 2.77069 12.1325 3.16466 10.3096C3.55862 8.48663 4.57683 6.85852 6.04342 5.70641C7.51002 4.5543 9.33292 3.95053 11.1973 3.99938C13.0617 4.04823 14.8504 4.74663 16.2547 5.97396L14.839 5.98166C14.5738 5.98243 14.3197 6.08852 14.1327 6.2766C13.9457 6.46468 13.8411 6.71934 13.8419 6.98456C13.8427 7.24977 13.9487 7.50382 14.1368 7.69082C14.3249 7.87781 14.5796 7.98243 14.8448 7.98166H14.8503L18.4558 7.96216C18.7209 7.9607 18.9746 7.85402 19.1611 7.66556C19.3476 7.4771 19.4516 7.22229 19.4503 6.95716L19.4303 3.35176C19.4344 3.21906 19.4111 3.08693 19.3619 2.96364C19.3127 2.84034 19.2385 2.72852 19.1441 2.63517C19.0497 2.54182 18.9371 2.46894 18.8132 2.42109C18.6894 2.37324 18.557 2.35144 18.4244 2.35706C18.1593 2.35862 17.9056 2.46541 17.7192 2.65394C17.5328 2.84248 17.4288 3.09733 17.4303 3.36246L17.4355 4.35876C15.661 2.86426 13.4217 2.03394 11.1019 2.01029C8.78204 1.98663 6.52629 2.77111 4.72172 4.22912C2.91715 5.68712 1.67629 7.72773 1.21207 10.0008C0.747844 12.2738 1.08921 14.6376 2.17758 16.6864C3.26595 18.7352 5.03346 20.3414 7.17681 21.2292C9.32016 22.1171 11.7057 22.2313 13.9241 21.5523C16.1424 20.8732 18.0553 19.4433 19.3344 17.5078C20.6135 15.5723 21.1791 13.252 20.9342 10.945C20.9238 10.8117 20.8869 10.6819 20.8256 10.5632C20.7642 10.4445 20.6797 10.3393 20.577 10.2538C20.4744 10.1683 20.3556 10.1043 20.2277 10.0654C20.0999 10.0266 19.9655 10.0138 19.8326 10.0278C19.6998 10.0418 19.571 10.0822 19.454 10.1468C19.337 10.2113 19.2342 10.2987 19.1515 10.4037C19.0688 10.5086 19.0081 10.6291 18.9727 10.758C18.9374 10.8869 18.9283 11.0215 18.9459 11.154H18.9464Z" fill="black"/>
</svg>
