<svg width="24" height="24" viewBox="0 0 24 24" fill="none" xmlns="http://www.w3.org/2000/svg">
<path fill-rule="evenodd" clip-rule="evenodd" d="M18.1547 19.4574C18.8625 19.4574 19.4391 18.8809 19.4391 18.173V16.1152C19.4391 15.6887 19.7813 15.3418 20.2078 15.3418C20.6344 15.3418 20.9766 15.6887 20.9766 16.1152V18.173C20.9766 19.734 19.7156 20.9996 18.1547 20.9996H16.1016C15.675 20.9996 15.3328 20.6527 15.3328 20.2262C15.3328 19.7996 15.675 19.4527 16.1016 19.4527H18.1547V19.4574V19.4574Z" fill="black"/>
<path fill-rule="evenodd" clip-rule="evenodd" d="M18.1547 4.54219C18.8625 4.54219 19.4391 5.11875 19.4391 5.82656V7.88438C19.4391 8.31094 19.7813 8.65781 20.2078 8.65781C20.6344 8.65781 20.9766 8.31094 20.9766 7.88438V5.82656C20.9766 4.26563 19.7156 3 18.1547 3H16.1016C15.675 3 15.3328 3.34688 15.3328 3.77344C15.3328 4.2 15.675 4.54688 16.1016 4.54688L18.1547 4.54219Z" fill="black"/>
<path fill-rule="evenodd" clip-rule="evenodd" d="M5.84531 19.4574C5.1375 19.4574 4.56094 18.8809 4.56094 18.173V16.1152C4.56094 15.6887 4.21875 15.3418 3.79219 15.3418C3.36563 15.3418 3.02344 15.6887 3.02344 16.1152V18.173C3.02344 19.734 4.28437 20.9996 5.84531 20.9996H7.89844C8.325 20.9996 8.66719 20.6527 8.66719 20.2262C8.66719 19.7996 8.325 19.4527 7.89844 19.4527H5.84531V19.4574Z" fill="black"/>
<path fill-rule="evenodd" clip-rule="evenodd" d="M5.84531 4.54219C5.1375 4.54219 4.56094 5.11875 4.56094 5.82656V7.88438C4.56094 8.31094 4.21875 8.65781 3.79219 8.65781C3.36563 8.65781 3.02344 8.31094 3.02344 7.88438V5.82656C3.02344 4.26563 4.28906 3 5.84531 3H7.89844C8.325 3 8.66719 3.34688 8.66719 3.77344C8.66719 4.2 8.325 4.54688 7.89844 4.54688L5.84531 4.54219Z" fill="black"/>
<path fill-rule="evenodd" clip-rule="evenodd" d="M18 12C18 12.4266 17.7281 12.7734 17.386 12.7734H6.61876C6.27657 12.7734 6.0047 12.4266 6.0047 12C6.0047 11.5734 6.27657 11.2266 6.61876 11.2266H17.386C17.7235 11.2266 18 11.5734 18 12Z" fill="black"/>
</svg>
