<svg width="32" height="32" viewBox="0 0 32 32" fill="none" xmlns="http://www.w3.org/2000/svg">
<g clip-path="url(#clip0_361_11783)">
<path d="M31.8151 22.2413L30.2895 20.7282C30.0443 20.485 29.6486 20.4867 29.4054 20.7318C29.1622 20.9769 29.1639 21.3727 29.4091 21.6159L30.9346 23.129C31.0564 23.2499 31.2156 23.3103 31.3747 23.3103C31.5356 23.3103 31.6964 23.2486 31.8186 23.1254C32.0618 22.8802 32.0602 22.4844 31.8151 22.2413Z" fill="black"/>
<path d="M28.7349 19.1802C28.4908 18.936 28.0951 18.936 27.8509 19.1802L27.8498 19.1812C27.6057 19.4254 27.6062 19.8207 27.8504 20.0648C27.9722 20.1867 28.1322 20.2477 28.2921 20.2477C28.4523 20.2477 28.6127 20.1865 28.7349 20.0643C28.979 19.8202 28.979 19.4244 28.7349 19.1802Z" fill="black"/>
<path d="M23.4058 22.0624L29.4701 15.9982C30.3885 15.0797 30.3885 13.5852 29.47 12.6667C29.1462 12.3429 28.7506 12.1337 28.334 12.0383C28.4768 11.7312 28.5525 11.3941 28.5525 11.0453C28.5525 10.4161 28.3074 9.8245 27.8625 9.37962C27.5136 9.03062 27.0743 8.80525 26.5975 8.72406C26.8659 7.90618 26.6762 6.9695 26.027 6.32037C25.67 5.9635 25.2261 5.746 24.7628 5.6665C24.8404 5.43093 24.8813 5.18218 24.8813 4.92693C24.8813 4.29768 24.6363 3.70612 24.1914 3.26125C23.7465 2.81637 23.1549 2.57131 22.5257 2.57131C22.1262 2.57131 21.742 2.67043 21.4007 2.85656L21.3403 2.79175C20.5565 1.94937 19.4469 1.46631 18.2963 1.46631H13.3876C13.0424 1.46631 12.7625 1.74625 12.7625 2.09143V2.91118C12.7625 3.23925 12.818 3.55862 12.9241 3.85893C12.6413 3.7415 12.3354 3.67981 12.02 3.67981C11.3908 3.67981 10.7992 3.92487 10.3543 4.36975C9.70478 5.01925 9.51522 5.95662 9.78428 6.77475C9.32059 6.85406 8.87603 7.07168 8.51878 7.42887C8.07391 7.87381 7.82884 8.46537 7.82884 9.09456C7.82884 9.34931 7.86966 9.59768 7.94697 9.83275C7.47072 9.91418 7.03184 10.1394 6.68322 10.4881C5.96591 11.2054 5.80884 12.2742 6.21203 13.1454C5.78509 13.2429 5.39297 13.4579 5.07559 13.7752C4.15716 14.6937 4.15716 16.1882 5.07559 17.1067L6.32272 18.3537L0.183094 24.4932C-0.0610313 24.7374 -0.0610313 25.1332 0.183094 25.3774C0.305156 25.4994 0.465156 25.5605 0.625094 25.5605C0.785031 25.5605 0.945031 25.4994 1.06709 25.3774L7.26597 19.1785C7.61691 19.3787 8.01516 19.4859 8.43022 19.4859C9.05941 19.4859 9.65097 19.2408 10.0959 18.7959C10.5793 18.3126 10.8079 17.6696 10.7825 17.0351C10.8142 17.0364 10.8458 17.0374 10.8775 17.0374C11.4807 17.0373 12.0841 16.8077 12.5432 16.3486C12.9881 15.9036 13.2332 15.3121 13.2332 14.6829C13.2332 14.6511 13.2321 14.6194 13.2308 14.5878C13.2622 14.5891 13.2935 14.5901 13.3248 14.5901C13.928 14.5901 14.5313 14.3604 14.9905 13.9012C15.4354 13.4563 15.6805 12.8647 15.6805 12.2356C15.6805 12.2037 15.6794 12.1721 15.6782 12.1405C15.7095 12.1417 15.7408 12.1427 15.7722 12.1427C16.3754 12.1427 16.9787 11.9131 17.4378 11.4539C18.3008 10.5909 18.3528 9.2195 17.5941 8.29506L21.7437 4.14543C21.9525 3.93656 22.23 3.82162 22.5253 3.82162C22.8207 3.82162 23.0982 3.93656 23.307 4.14543C23.5158 4.35425 23.6308 4.63175 23.6308 4.92706C23.6308 5.22231 23.5158 5.49993 23.307 5.70868L22.6952 6.3205L20.4753 8.54037C20.2312 8.7845 20.2312 9.18031 20.4753 9.4245C20.5973 9.5465 20.7573 9.60762 20.9173 9.60762C21.0772 9.60762 21.2372 9.54656 21.3593 9.4245L23.5792 7.20462C24.0101 6.77362 24.7114 6.77356 25.1425 7.20456C25.5735 7.63562 25.5735 8.33687 25.1425 8.76793L24.5306 9.37981L22.9226 10.9878C22.6785 11.2319 22.6785 11.6277 22.9226 11.8719C23.0447 11.9939 23.2047 12.0551 23.3646 12.0551C23.5245 12.0551 23.6845 11.994 23.8066 11.8719L25.4146 10.2639C25.6234 10.0551 25.901 9.94012 26.1962 9.94012C26.4915 9.94012 26.7691 10.0551 26.9779 10.2639C27.1867 10.4727 27.3017 10.7502 27.3017 11.0456C27.3017 11.3408 27.1867 11.6184 26.9778 11.8272L26.138 12.667L25.3698 13.4352C25.1257 13.6793 25.1257 14.0751 25.3698 14.3193C25.4919 14.4413 25.6519 14.5024 25.8118 14.5024C25.9718 14.5024 26.1318 14.4414 26.2538 14.3193L27.0226 13.5506C27.4537 13.1202 28.1545 13.1203 28.5853 13.5511C29.0164 13.9821 29.0164 14.6834 28.5853 15.1145L22.5211 21.1787C20.9983 22.7015 18.9745 23.5831 16.8225 23.6612C16.6643 23.6669 16.514 23.7325 16.4023 23.8447L10.8003 29.4675C10.5566 29.7121 10.5573 30.1079 10.8019 30.3516C10.9238 30.4731 11.0835 30.5339 11.2431 30.5339C11.4034 30.5339 11.5638 30.4726 11.6859 30.3499L15.8063 26.2143C16.853 26.8857 18.0838 27.205 19.3354 27.1222L22.5603 30.3472C22.6823 30.4692 22.8423 30.5303 23.0023 30.5303C23.1623 30.5303 23.3222 30.4692 23.4443 30.3472C23.6884 30.1031 23.6884 29.7072 23.4443 29.4631L20.0155 26.0339C19.8857 25.9042 19.7053 25.8379 19.5224 25.8529L19.3242 25.8691C18.4094 25.9441 17.5052 25.7437 16.7157 25.3013L17.1174 24.8981C19.4934 24.7516 21.7179 23.7504 23.4058 22.0624ZM9.21191 17.9119C9.00309 18.1207 8.72547 18.2357 8.43028 18.2357C8.13497 18.2357 7.85741 18.1207 7.64866 17.9119L5.95953 16.2228C5.52853 15.7918 5.52853 15.0905 5.95953 14.6594C6.16834 14.4506 6.44597 14.3356 6.74122 14.3356C7.03647 14.3356 7.31409 14.4506 7.52284 14.6594L9.21197 16.3485C9.64291 16.7795 9.64291 17.4808 9.21191 17.9119ZM11.6593 15.4644C11.2283 15.8954 10.5268 15.8954 10.096 15.4644L8.40684 13.7753L7.56697 12.9354C7.13597 12.5044 7.13597 11.8031 7.56697 11.3721C7.77578 11.1632 8.05341 11.0483 8.34859 11.0483C8.64391 11.0483 8.92147 11.1632 9.13022 11.3721L11.6592 13.9011C11.6592 13.9011 11.6592 13.9011 11.6592 13.9011C11.8681 14.1099 11.983 14.3875 11.983 14.6827C11.983 14.978 11.8681 15.2556 11.6593 15.4644ZM14.1067 13.0171C13.6756 13.448 12.9742 13.4481 12.5433 13.0171L9.40247 9.87625C9.19366 9.66743 9.07872 9.38993 9.07872 9.09462C9.07872 8.79937 9.19366 8.52175 9.40253 8.313C9.61803 8.0975 9.90116 7.98975 10.1842 7.98975C10.467 7.98975 10.7498 8.09737 10.9653 8.3125L12.3968 9.744L14.1065 11.4537H14.1066C14.3153 11.6626 14.4303 11.9401 14.4303 12.2354C14.4304 12.5307 14.3155 12.8083 14.1067 13.0171ZM16.554 10.5697C16.123 11.0007 15.4217 11.0007 14.9907 10.5697L11.8499 7.42887C11.8496 7.42856 11.8492 7.42825 11.8488 7.42787L11.238 6.81706C10.807 6.386 10.807 5.68475 11.238 5.25368C11.4535 5.03812 11.7367 4.93037 12.0197 4.93037C12.3028 4.93037 12.5859 5.03812 12.8013 5.25368L16.5539 9.00625C16.7628 9.21506 16.8777 9.49262 16.8777 9.78787C16.8778 10.0832 16.7629 10.3609 16.554 10.5697ZM16.7184 7.40268L15.0014 5.68568C15.1961 5.72725 15.3963 5.74931 15.6 5.74925C15.6046 5.74925 15.6092 5.74925 15.6138 5.74925L17.3293 5.74118C17.6745 5.73956 17.9532 5.45837 17.9515 5.11312C17.9499 4.76887 17.6703 4.49093 17.3265 4.49093C17.3255 4.49093 17.3245 4.49093 17.3235 4.49093L15.608 4.499C15.6053 4.499 15.6028 4.499 15.6002 4.499C15.1775 4.499 14.78 4.33493 14.4802 4.03662C14.1786 3.73637 14.0125 3.33675 14.0125 2.91112V2.7165H18.2962C19.1008 2.7165 19.8768 3.05431 20.425 3.64343L20.4505 3.67075L16.7184 7.40268Z" fill="black"/>
</g>
<defs>
<clipPath id="clip0_361_11783">
<rect width="32" height="32" fill="white"/>
</clipPath>
</defs>
</svg>
