<svg width="32" height="32" viewBox="0 0 32 32" fill="none" xmlns="http://www.w3.org/2000/svg">
<path d="M31.2078 6.5098C31.6392 6.5098 31.9922 6.15686 32 5.72549V0.792157C32 0.352941 31.6471 0 31.2078 0H26.2745C25.8431 0 25.4902 0.352941 25.4902 0.792157V2.5098H6.5098V0.792157C6.5098 0.360784 6.15686 0.00784314 5.72549 0H0.792157C0.360784 0 0.00784314 0.352941 0 0.792157V5.72549C0 6.15686 0.352941 6.5098 0.792157 6.5098H2.5098V25.4902H0.792157C0.360784 25.4902 0.00784314 25.8431 0 26.2745V31.2078C0 31.6392 0.352941 31.9922 0.792157 32H5.72549C6.15686 32 6.5098 31.6471 6.5098 31.2078V29.4902H25.4902V31.2078C25.4902 31.6392 25.8431 31.9922 26.2745 32H31.2078C31.6392 32 31.9922 31.6471 32 31.2078V26.2745C32 25.8431 31.6471 25.4902 31.2078 25.4902H29.4902V6.5098H31.2078ZM1.56863 4.94118V1.56863H4.94118V4.94118H1.56863ZM4.94118 30.4314H1.56863V27.0588H4.94118V30.4314ZM25.4902 26.2745V27.9216H6.5098V26.2745C6.5098 25.8431 6.15686 25.4902 5.72549 25.4902H4.07843V6.5098H5.72549C6.15686 6.5098 6.5098 6.15686 6.5098 5.72549V4.07843H25.4902V5.72549C25.4902 6.15686 25.8431 6.5098 26.2745 6.5098H27.9216V25.4902H26.2745C25.8431 25.4902 25.4902 25.8431 25.4902 26.2745ZM30.4314 27.0588V30.4314H27.0588V27.0588H30.4314ZM27.0588 4.94118V1.56863H30.4314V4.94118H27.0588Z" fill="black"/>
</svg>
