<svg width="32" height="32" viewBox="0 0 32 32" fill="none" xmlns="http://www.w3.org/2000/svg">
<path d="M28.068 12H27.94C27.7524 11.9983 27.5696 11.9402 27.4155 11.8332C27.2614 11.7262 27.1431 11.5752 27.076 11.4C27.0054 11.2308 26.9867 11.0444 27.0223 10.8646C27.0579 10.6847 27.1462 10.5195 27.276 10.39L27.367 10.299C27.9156 9.74834 28.2235 9.00276 28.2235 8.2255C28.2235 7.44824 27.9156 6.70265 27.367 6.152L25.856 4.642C25.3058 4.09302 24.5603 3.78471 23.783 3.78471C23.0057 3.78471 22.2602 4.09302 21.71 4.642L21.619 4.733C21.4849 4.86211 21.3161 4.94928 21.1332 4.98381C20.9503 5.01833 20.7613 4.99871 20.5894 4.92736C20.4175 4.856 20.2701 4.73601 20.1654 4.58212C20.0607 4.42822 20.0032 4.2471 20 4.061V3.932C19.9992 3.15463 19.69 2.40932 19.1404 1.85964C18.5907 1.30996 17.8454 1.00079 17.068 1H14.932C14.1546 1.00079 13.4093 1.30996 12.8596 1.85964C12.31 2.40932 12.0008 3.15463 12 3.932V4.061C11.9951 4.24577 11.9368 4.42516 11.8321 4.57747C11.7273 4.72977 11.5807 4.84844 11.4099 4.91913C11.2391 4.98981 11.0515 5.00947 10.8698 4.97573C10.6881 4.94198 10.52 4.85628 10.386 4.729L10.3 4.638C9.74977 4.08902 9.00426 3.78071 8.227 3.78071C7.44974 3.78071 6.70423 4.08902 6.154 4.638L4.638 6.148C4.08945 6.69866 3.78145 7.44424 3.78145 8.2215C3.78145 8.99876 4.08945 9.74434 4.638 10.295L4.729 10.386C4.86005 10.5201 4.94777 10.6905 4.98076 10.875C5.01375 11.0596 4.99049 11.2498 4.914 11.421C4.84538 11.5915 4.72747 11.7377 4.57534 11.8408C4.42322 11.9439 4.24379 11.9994 4.06 12H3.932C3.15463 12.0008 2.40932 12.31 1.85964 12.8596C1.30996 13.4093 1.00079 14.1546 1 14.932V17.068C1.00079 17.8454 1.30996 18.5907 1.85964 19.1404C2.40932 19.69 3.15463 19.9992 3.932 20H4.06C4.24762 20.0017 4.43039 20.0598 4.5845 20.1668C4.73861 20.2738 4.85691 20.4248 4.924 20.6C4.99463 20.7692 5.01333 20.9556 4.97771 21.1354C4.9421 21.3153 4.85378 21.4805 4.724 21.61L4.633 21.701C4.08445 22.2517 3.77645 22.9972 3.77645 23.7745C3.77645 24.5518 4.08445 25.2973 4.633 25.848L6.143 27.357C6.69314 27.9065 7.43892 28.2152 8.2165 28.2152C8.99408 28.2152 9.73986 27.9065 10.29 27.357L10.381 27.266C10.5152 27.1351 10.6855 27.0474 10.8701 27.0144C11.0546 26.9815 11.2448 27.0046 11.416 27.081C11.5865 27.1493 11.7327 27.267 11.8359 27.419C11.939 27.571 11.9944 27.7503 11.995 27.934V28.063C11.9947 28.4488 12.0705 28.8308 12.218 29.1873C12.3655 29.5437 12.5819 29.8676 12.8546 30.1404C13.1274 30.4131 13.4513 30.6295 13.8077 30.777C14.1642 30.9245 14.5462 31.0003 14.932 31H17.068C17.8454 30.9992 18.5907 30.69 19.1404 30.1404C19.69 29.5907 19.9992 28.8454 20 28.068V27.939C20.0049 27.7542 20.0632 27.5748 20.1679 27.4225C20.2727 27.2702 20.4193 27.1516 20.5901 27.0809C20.7609 27.0102 20.9485 26.9905 21.1302 27.0243C21.3119 27.058 21.48 27.1437 21.614 27.271L21.705 27.362C22.2552 27.911 23.0007 28.2193 23.778 28.2193C24.5553 28.2193 25.3008 27.911 25.851 27.362L27.362 25.853C27.9106 25.3023 28.2185 24.5568 28.2185 23.7795C28.2185 23.0022 27.9106 22.2567 27.362 21.706L27.271 21.615C27.1399 21.4809 27.0522 21.3105 27.0192 21.126C26.9862 20.9414 27.0095 20.7512 27.086 20.58C27.1545 20.4093 27.2723 20.2629 27.4244 20.1596C27.5766 20.0563 27.7561 20.0007 27.94 20H28.068C28.8454 19.9992 29.5907 19.69 30.1404 19.1404C30.69 18.5907 30.9992 17.8454 31 17.068V14.932C30.9992 14.1546 30.69 13.4093 30.1404 12.8596C29.5907 12.31 28.8454 12.0008 28.068 12ZM29 17.068C28.9997 17.3151 28.9015 17.552 28.7267 17.7267C28.552 17.9015 28.3151 17.9997 28.068 18H27.94C27.3597 18.0049 26.7937 18.1806 26.3125 18.505C25.8314 18.8295 25.4563 19.2884 25.2342 19.8245C25.0121 20.3607 24.9527 20.9503 25.0635 21.52C25.1742 22.0897 25.4502 22.6141 25.857 23.028L25.947 23.119C26.1216 23.2941 26.2196 23.5312 26.2196 23.7785C26.2196 24.0258 26.1216 24.2629 25.947 24.438L24.436 25.947C24.2612 26.1218 24.0242 26.22 23.777 26.22C23.5298 26.22 23.2928 26.1218 23.118 25.947L23.028 25.856C22.6139 25.4497 22.0895 25.1741 21.52 25.0636C20.9505 24.9532 20.3611 25.0126 19.8251 25.2347C19.2892 25.4567 18.8304 25.8315 18.5058 26.3123C18.1813 26.7932 18.0054 27.3589 18 27.939V28.068C17.9997 28.3151 17.9015 28.552 17.7267 28.7267C17.552 28.9015 17.3151 28.9997 17.068 29H14.932C14.6849 28.9997 14.448 28.9015 14.2733 28.7267C14.0985 28.552 14.0003 28.3151 14 28.068V27.939C13.9972 27.3577 13.8228 26.7902 13.4986 26.3077C13.1745 25.8252 12.7151 25.4492 12.178 25.2268C11.641 25.0044 11.0502 24.9456 10.4798 25.0577C9.90947 25.1698 9.38492 25.4479 8.972 25.857L8.881 25.948C8.70596 26.1223 8.46901 26.2201 8.222 26.2201C7.97499 26.2201 7.73804 26.1223 7.563 25.948L6.053 24.439C5.87841 24.2639 5.78037 24.0268 5.78037 23.7795C5.78037 23.5322 5.87841 23.2951 6.053 23.12L6.144 23.029C6.55119 22.6151 6.82748 22.0905 6.93839 21.5205C7.04929 20.9506 6.9899 20.3607 6.76763 19.8243C6.54535 19.2879 6.17003 18.8288 5.68852 18.5044C5.207 18.18 4.6406 18.0046 4.06 18H3.932C3.6849 17.9997 3.448 17.9015 3.27327 17.7267C3.09854 17.552 3.00026 17.3151 3 17.068V14.932C3.00026 14.6849 3.09854 14.448 3.27327 14.2733C3.448 14.0985 3.6849 14.0003 3.932 14H4.06C4.64031 13.9951 5.20633 13.8194 5.68749 13.495C6.16864 13.1705 6.54366 12.7116 6.76577 12.1755C6.98788 11.6393 7.04727 11.0497 6.93652 10.48C6.82578 9.91034 6.5498 9.38588 6.143 8.972L6.053 8.881C5.87848 8.70609 5.78046 8.46909 5.78046 8.222C5.78046 7.97491 5.87848 7.73791 6.053 7.563L7.563 6.052C7.73778 5.87723 7.97483 5.77905 8.222 5.77905C8.46917 5.77905 8.70622 5.87723 8.881 6.052L8.971 6.143C9.38495 6.54961 9.90937 6.82544 10.479 6.93615C11.0485 7.04685 11.6381 6.98754 12.1742 6.76558C12.7103 6.54363 13.1693 6.16886 13.494 5.68794C13.8186 5.20702 13.9946 4.64122 14 4.061V3.932C14.0003 3.6849 14.0985 3.448 14.2733 3.27327C14.448 3.09854 14.6849 3.00026 14.932 3H17.068C17.3151 3.00026 17.552 3.09854 17.7267 3.27327C17.9015 3.448 17.9997 3.6849 18 3.932V4.061C18.0051 4.64122 18.1809 5.2071 18.5054 5.68811C18.83 6.16912 19.2889 6.54398 19.825 6.76597C20.3611 6.98796 20.9507 7.04726 21.5202 6.93648C22.0898 6.8257 22.6142 6.54974 23.028 6.143L23.119 6.052C23.2938 5.87723 23.5308 5.77905 23.778 5.77905C24.0252 5.77905 24.2622 5.87723 24.437 6.052L25.947 7.563C26.1215 7.73791 26.2195 7.97491 26.2195 8.222C26.2195 8.46909 26.1215 8.70609 25.947 8.881L25.856 8.972C25.4491 9.38594 25.1731 9.91049 25.0624 10.4803C24.9517 11.05 25.0112 11.6397 25.2334 12.1759C25.4557 12.7121 25.8308 13.171 26.3121 13.4954C26.7935 13.8198 27.3596 13.9953 27.94 14H28.068C28.3151 14.0003 28.552 14.0985 28.7267 14.2733C28.9015 14.448 28.9997 14.6849 29 14.932V17.068Z" fill="black"/>
<path d="M16 9C14.6155 9 13.2622 9.41054 12.111 10.1797C10.9599 10.9489 10.0627 12.0421 9.53285 13.3212C9.00303 14.6003 8.86441 16.0078 9.13451 17.3656C9.4046 18.7235 10.0713 19.9708 11.0503 20.9497C12.0292 21.9287 13.2765 22.5954 14.6344 22.8655C15.9922 23.1356 17.3997 22.997 18.6788 22.4672C19.9579 21.9373 21.0511 21.0401 21.8203 19.889C22.5895 18.7378 23 17.3845 23 16C22.9979 14.1441 22.2597 12.3649 20.9474 11.0526C19.6351 9.7403 17.8559 9.00212 16 9ZM16 21C15.0111 21 14.0444 20.7068 13.2222 20.1573C12.3999 19.6079 11.759 18.827 11.3806 17.9134C11.0022 16.9998 10.9031 15.9945 11.0961 15.0245C11.289 14.0546 11.7652 13.1637 12.4645 12.4645C13.1637 11.7652 14.0546 11.289 15.0246 11.0961C15.9945 10.9031 16.9998 11.0022 17.9134 11.3806C18.8271 11.759 19.6079 12.3999 20.1574 13.2221C20.7068 14.0444 21 15.0111 21 16C20.9984 17.3256 20.4711 18.5964 19.5338 19.5338C18.5964 20.4711 17.3256 20.9984 16 21Z" fill="black"/>
</svg>
