<svg width="32" height="32" viewBox="0 0 32 32" fill="none" xmlns="http://www.w3.org/2000/svg">
<g clip-path="url(#clip0_680_29210)">
<path d="M29.0809 16.604C28.8193 16.604 28.5812 16.4358 28.4929 16.1898C28.4062 15.9478 28.4802 15.6691 28.6765 15.5027C28.8812 15.329 29.1828 15.3066 29.4108 15.4483C29.6298 15.5844 29.7436 15.8488 29.6936 16.1014C29.6364 16.3905 29.3755 16.604 29.0809 16.604Z" fill="black"/>
<path d="M15.9883 7.33789C11.212 7.33789 7.32617 11.2237 7.32617 16.0001C7.32617 20.7764 11.212 24.6622 15.9883 24.6622C20.7647 24.6622 24.6505 20.7764 24.6505 16.0001C24.6505 11.2237 20.7647 7.33789 15.9883 7.33789ZM11.8841 16.6761C12.584 16.6275 13.9227 16.645 14.6493 17.3716C15.2139 17.9362 15.3603 18.9117 15.3636 19.6783C15.3636 19.6916 15.3636 19.705 15.3637 19.7182C15.3633 19.8677 15.3576 20.0087 15.3486 20.1365C14.5607 20.1918 13.2692 20.1227 12.5836 19.4371H12.5837C11.8991 18.7526 11.8294 17.4638 11.8841 16.6761ZM16.613 19.7013C16.613 19.6971 16.613 19.6931 16.613 19.6889C16.6149 18.9206 16.7601 17.9387 17.3272 17.3716C18.0129 16.6859 19.3047 16.6172 20.0922 16.6722C20.1474 17.4603 20.0784 18.7517 19.3928 19.4372C18.7072 20.1229 17.4153 20.1917 16.628 20.1365C16.6186 20.004 16.6129 19.8571 16.613 19.7013ZM15.9912 16.8762C15.4621 16.4157 14.5278 15.4568 14.5278 14.429C14.5278 13.4609 15.3898 12.5002 15.9855 11.9818C16.5146 12.4423 17.4489 13.4013 17.4489 14.429C17.4489 15.3973 16.5869 16.3579 15.9912 16.8762ZM16.6135 23.3857V21.3868C16.7517 21.3952 16.9067 21.4008 17.0741 21.4008C18.0276 21.4008 19.3803 21.218 20.277 20.3213C21.7583 18.84 21.2913 16.1145 21.2707 15.9992C21.2247 15.7415 21.0229 15.5398 20.7652 15.4938C20.6947 15.4812 19.648 15.3016 18.5067 15.5028C18.6265 15.1649 18.6993 14.805 18.6993 14.429C18.6993 12.3341 16.4418 10.7371 16.3457 10.6702C16.1309 10.5206 15.8457 10.5206 15.6309 10.6702C15.5348 10.7371 13.2773 12.3341 13.2773 14.429C13.2773 14.805 13.35 15.1649 13.4698 15.5028C12.3285 15.3016 11.2818 15.4812 11.2113 15.4938C10.9536 15.5398 10.7519 15.7415 10.7058 15.9992C10.6852 16.1145 10.2181 18.84 11.6995 20.3213H11.6996C12.5964 21.2181 13.949 21.4008 14.9025 21.4008C15.0699 21.4008 15.2249 21.3952 15.3631 21.3868V23.3857C11.5677 23.0672 8.57648 19.8764 8.57648 16.0001C8.57648 11.9132 11.9014 8.58826 15.9883 8.58826C20.0752 8.58826 23.4001 11.9132 23.4001 16.0001C23.4001 19.8764 20.4089 23.0672 16.6135 23.3857Z" fill="black"/>
<path d="M3.24686 32C2.75715 32.0001 2.31771 31.8716 1.99943 31.5533C0.834838 30.3887 2.21168 27.5974 3.1282 26.6808C3.19203 26.6169 3.25892 26.5566 3.32857 26.4997C2.65106 23.2321 2.29377 19.6122 2.29377 16C2.29377 12.3878 2.65106 8.76784 3.32857 5.50032C3.25892 5.44356 3.19203 5.3831 3.1282 5.31927C2.21168 4.40269 0.834776 1.61137 1.99937 0.446719C3.15352 -0.707306 5.90545 0.634524 6.84685 1.55073L8.22788 1.32291C13.3852 0.472352 18.6151 0.472352 23.7725 1.32291L25.1535 1.55073C26.0949 0.634524 28.8467 -0.707619 30.001 0.446719C31.1656 1.61137 29.7888 4.40263 28.8722 5.31927C28.8083 5.3831 28.7415 5.4435 28.6719 5.50032C29.161 7.85633 29.4809 10.359 29.623 12.9466L29.6305 13.0862C29.6484 13.431 29.3833 13.725 29.0385 13.7429C28.6937 13.7619 28.3997 13.4958 28.3818 13.1509L28.3745 13.0154C28.2276 10.3421 27.887 7.76424 27.3624 5.35341C27.3035 5.08283 27.4296 4.80568 27.6723 4.67239C27.7876 4.60906 27.8938 4.52923 27.988 4.43501C28.286 4.13705 28.7283 3.43678 28.9972 2.67487C29.2772 1.88114 29.2222 1.4362 29.1168 1.33085C29.0115 1.22545 28.5665 1.17031 27.7727 1.45045C27.0108 1.71934 26.3106 2.1616 26.0126 2.45962C25.9678 2.50438 25.9258 2.55234 25.8879 2.60223C25.7476 2.78634 25.517 2.87756 25.2887 2.84036L23.569 2.55671C18.5467 1.72834 13.4537 1.72834 8.43138 2.55671L6.71162 2.84036C6.48343 2.87762 6.25274 2.7864 6.11245 2.60223C6.0745 2.55234 6.03255 2.50438 5.98772 2.45962C5.68976 2.1616 4.98949 1.71934 4.22758 1.45045C3.43379 1.17031 2.98897 1.22545 2.8835 1.33085C2.77816 1.43626 2.72308 1.88114 3.00316 2.67487C3.27205 3.43691 3.71437 4.13718 4.01233 4.43508C4.10648 4.52929 4.2127 4.60913 4.32805 4.67246C4.57081 4.80575 4.69691 5.08289 4.63802 5.35347C3.18709 12.02 3.18709 19.9801 4.63802 26.6467C4.69691 26.9173 4.57081 27.1944 4.32805 27.3277C4.21277 27.3911 4.10648 27.4709 4.01233 27.5651C3.71437 27.8631 3.27211 28.5633 3.00322 29.3252C2.72314 30.119 2.77822 30.5639 2.88356 30.6693C2.98891 30.7747 3.43385 30.8297 4.22765 30.5497C4.98956 30.2808 5.68982 29.8385 5.98779 29.5405C6.03255 29.4957 6.07456 29.4478 6.11251 29.3979C6.2528 29.2138 6.48343 29.1222 6.71168 29.1598L8.43144 29.4435C13.4536 30.2718 18.5467 30.2718 23.569 29.4435L25.2887 29.1598C25.5171 29.1221 25.7477 29.2136 25.8879 29.3979C25.9259 29.4478 25.9678 29.4957 26.0127 29.5405C26.3106 29.8385 27.0109 30.2808 27.7728 30.5497C28.5666 30.8299 29.0115 30.7748 29.1169 30.6693C29.2222 30.5639 29.2773 30.119 28.9972 29.3252C28.7283 28.5633 28.286 27.863 27.988 27.5651C27.8939 27.4709 27.7876 27.3911 27.6723 27.3277C27.4296 27.1944 27.3035 26.9173 27.3624 26.6467C27.8931 24.2079 28.2354 21.5996 28.3795 18.8942L28.3843 18.8023C28.402 18.4574 28.6953 18.1921 29.0406 18.2098C29.3855 18.2274 29.6507 18.5212 29.6331 18.8661L29.6281 18.9605C29.4885 21.5811 29.1671 24.1152 28.6719 26.4999C28.7416 26.5566 28.8084 26.617 28.8723 26.6809C29.7888 27.5975 31.1657 30.3888 30.0011 31.5535C28.8469 32.7075 26.0951 31.3657 25.1537 30.4494L23.7726 30.6772C18.6153 31.5279 13.3854 31.5278 8.228 30.6773L6.84697 30.4494C6.16502 31.113 4.53323 32 3.24686 32Z" fill="black"/>
</g>
<defs>
<clipPath id="clip0_680_29210">
<rect width="32" height="32" fill="white"/>
</clipPath>
</defs>
</svg>
