<svg width="24" height="24" viewBox="0 0 24 24" fill="none" xmlns="http://www.w3.org/2000/svg">
<path d="M9.66668 0C15.0055 0 19.3334 4.32793 19.3334 9.66668C19.3334 11.9759 18.5236 14.0959 17.1727 15.7584L23.7071 22.293C24.0976 22.6835 24.0976 23.3166 23.7071 23.7071C23.3522 24.0622 22.7966 24.0944 22.4051 23.8039L22.293 23.7071L15.7584 17.1727C14.0959 18.5236 11.9759 19.3334 9.66668 19.3334C4.32793 19.3334 0 15.0055 0 9.66668C0 4.32793 4.32793 0 9.66668 0ZM9.66668 2C5.43249 2 2 5.43249 2 9.66668C2 13.9008 5.43249 17.3334 9.66668 17.3334C13.9008 17.3334 17.3334 13.9008 17.3334 9.66668C17.3334 5.43249 13.9008 2 9.66668 2Z" fill="#212121"/>
</svg>
