<svg width="32" height="32" viewBox="0 0 32 32" fill="none" xmlns="http://www.w3.org/2000/svg">
<path d="M28.2324 14.8285C27.1436 14.2841 25.102 14.2778 25.0156 14.2778C24.7567 14.2778 24.5469 14.4877 24.5469 14.7466C24.5469 15.0055 24.7567 15.2153 25.0156 15.2153C25.5424 15.2154 27.072 15.2965 27.8132 15.6671C27.8805 15.7008 27.952 15.7166 28.0224 15.7166C28.1944 15.7166 28.3599 15.6216 28.4421 15.4575C28.5579 15.2259 28.464 14.9443 28.2324 14.8285Z" fill="black"/>
<path d="M30.5695 21.5023L28.6336 20.9492C28.55 20.9253 28.4916 20.848 28.4916 20.761V20.1148C28.6491 20.0057 28.7994 19.8836 28.9398 19.7473C29.6204 19.0868 29.9953 18.2008 29.9953 17.2526V16.3609L30.1824 15.9866C30.3879 15.5757 30.4964 15.1156 30.4964 14.6562V12.2406C30.4964 11.9817 30.2866 11.7718 30.0277 11.7718H25.5169C23.8766 11.7718 22.5421 13.1063 22.5421 14.7466V14.7745C22.5421 15.1565 22.6324 15.5391 22.8032 15.8807L23.0433 16.3608V17.1265C23.0433 18.3398 23.6413 19.4285 24.5469 20.0837L24.5471 20.7609C24.5471 20.8653 24.5471 20.9086 24.16 21.0192L23.2154 21.2891L20.4828 20.2955C20.4926 20.1665 20.4491 20.0354 20.3551 19.9366L19.4819 19.0192V17.4792C19.5742 17.4032 19.6652 17.325 19.7534 17.2424C20.8549 16.2099 21.4867 14.7522 21.4867 13.243V12.0131C21.8193 11.2893 21.9879 10.5233 21.9879 9.73453V4.72266C21.9879 4.46378 21.778 4.25391 21.5191 4.25391H14.5023C12.0329 4.25391 10.024 6.26291 10.024 8.73222V9.73466C10.024 10.5235 10.1926 11.2894 10.5252 12.0132V13.0714C10.5252 14.8237 11.3043 16.4023 12.53 17.443V19.0193L11.6568 19.9367C11.5627 20.0355 11.5192 20.1666 11.5291 20.2955L8.645 21.3442C8.436 21.4202 8.24181 21.5232 8.0655 21.6478L7.61263 21.4214C8.96075 20.8346 9.38781 20.0093 9.40831 19.9683C9.47431 19.8363 9.47431 19.681 9.40831 19.549C9.07038 18.8732 9.02944 17.6343 8.99656 16.639C8.98563 16.3076 8.97525 15.9945 8.95544 15.7158C8.79562 13.4674 7.08637 11.7718 4.9795 11.7718C2.87262 11.7718 1.16331 13.4673 1.00356 15.7158C0.98375 15.9946 0.973375 16.3077 0.962438 16.6391C0.929563 17.6344 0.888563 18.8731 0.550687 19.549C0.484688 19.6809 0.484688 19.8363 0.550687 19.9682C0.571187 20.0092 0.997375 20.8328 2.34819 21.4203L1.09025 22.0493C0.41775 22.3858 0 23.0617 0 23.8135V27.2766C0 27.5355 0.209875 27.7453 0.46875 27.7453C0.727625 27.7453 0.9375 27.5355 0.9375 27.2766V23.8135C0.9375 23.419 1.15669 23.0643 1.5095 22.8879L3.07594 22.1047L3.62081 22.6225C4.00181 22.9846 4.49056 23.1655 4.9795 23.1655C5.46831 23.1655 5.95731 22.9845 6.33819 22.6225L6.883 22.1048L7.39375 22.3602C7.15325 22.745 7.01675 23.1962 7.01675 23.6689V27.2767C7.01675 27.5356 7.22662 27.7455 7.4855 27.7455C7.74437 27.7455 7.95425 27.5356 7.95425 27.2767V23.6689C7.95425 23.0254 8.36056 22.4453 8.96537 22.2253L12.0061 21.1197L13.2719 23.0185C13.4338 23.2612 13.6931 23.4169 13.9834 23.4457C14.0157 23.4488 14.0479 23.4504 14.0801 23.4504C14.3362 23.4504 14.5815 23.3496 14.7649 23.1663L15.5371 22.394V27.2768C15.5371 27.5357 15.747 27.7455 16.0059 27.7455C16.2647 27.7455 16.4746 27.5357 16.4746 27.2768V22.394L17.2469 23.1663C17.4302 23.3497 17.6755 23.4505 17.9317 23.4505C17.9638 23.4505 17.996 23.4489 18.0283 23.4457C18.3187 23.417 18.578 23.2613 18.7398 23.0185L20.0057 21.1198L23.0464 22.2255C23.6511 22.4454 24.0575 23.0255 24.0575 23.669V27.2768C24.0575 27.5357 24.2674 27.7456 24.5263 27.7456C24.7851 27.7456 24.995 27.5357 24.995 27.2768V23.669C24.995 23.0173 24.7361 22.406 24.3017 21.954L24.4175 21.9209C24.5343 21.8875 24.6937 21.8418 24.8537 21.7634L26.0505 22.9602V27.2768C26.0505 27.5357 26.2604 27.7456 26.5193 27.7456C26.7781 27.7456 26.988 27.5357 26.988 27.2768V22.9602L28.1765 21.7717C28.2397 21.8038 28.3061 21.831 28.3759 21.8509L30.3119 22.404C30.7538 22.5303 31.0625 22.9395 31.0625 23.3991V27.2768C31.0625 27.5357 31.2724 27.7456 31.5312 27.7456C31.7901 27.7456 32 27.5357 32 27.2768V23.3991C32 22.523 31.4118 21.743 30.5695 21.5023ZM3.00719 20.6744C2.13038 20.3589 1.69056 19.9383 1.50281 19.7086C1.63081 19.374 1.71381 18.9907 1.77 18.5862C2.0285 19.206 2.46144 19.7351 3.00719 20.1126V20.6744ZM5.6925 21.943C5.29269 22.3229 4.66637 22.3228 4.26669 21.943L3.83075 21.5287C3.90431 21.3909 3.94475 21.2347 3.94475 21.071V20.5713C4.27175 20.6735 4.61938 20.7287 4.97963 20.7287C5.33944 20.7287 5.68688 20.6733 6.01444 20.5717L6.01438 21.0709C6.01438 21.2347 6.05475 21.391 6.12838 21.5288L5.6925 21.943ZM4.97975 19.7912C3.58 19.7912 2.44131 18.6524 2.44131 17.2527C2.44131 16.9938 2.23144 16.784 1.97256 16.784C1.94631 16.784 1.92069 16.7867 1.89562 16.7908C1.897 16.7505 1.89831 16.7102 1.89969 16.6702C1.91013 16.3479 1.92019 16.0435 1.93875 15.7823C1.99863 14.9401 2.33519 14.164 2.88644 13.5968C3.44263 13.0246 4.186 12.7095 4.97963 12.7095C5.77325 12.7095 6.51656 13.0246 7.07281 13.5968C7.62406 14.164 7.96063 14.9401 8.0205 15.7823C8.039 16.0434 8.04912 16.3478 8.05975 16.67C8.06069 16.6977 8.06163 16.7258 8.06256 16.7537C7.55256 15.9679 6.76494 15.3888 5.74725 15.0618C4.80706 14.7598 3.99844 14.7785 3.96431 14.7793C3.84156 14.7828 3.72506 14.8342 3.63987 14.9225L2.79413 15.7997C2.61444 15.986 2.61981 16.2828 2.80619 16.4625C2.99256 16.6422 3.28931 16.6367 3.469 16.4504L4.17275 15.7206C4.77881 15.7502 6.72862 15.977 7.48694 17.6468C7.29612 18.8773 6.2385 19.7912 4.97975 19.7912ZM6.95181 20.676L6.95188 20.1169C7.49719 19.7415 7.93075 19.2133 8.18944 18.5888C8.24563 18.9925 8.32856 19.3748 8.45631 19.7087C8.26962 19.9362 7.82775 20.3606 6.95181 20.676ZM11.4627 13.0713V11.9083C11.4627 11.8378 11.4467 11.7681 11.4161 11.7045C11.1144 11.0799 10.9615 10.4172 10.9615 9.73466V8.73228C10.9615 6.77984 12.5499 5.19147 14.5023 5.19147H21.0504V9.73472C21.0504 10.4172 20.8974 11.08 20.5958 11.7046C20.5651 11.7682 20.5492 11.8378 20.5492 11.9084V13.2431C20.5492 14.5125 20.0389 15.69 19.1122 16.5585C18.9966 16.6669 18.8765 16.7685 18.7524 16.8632C18.7496 16.8651 18.747 16.8672 18.7443 16.8691C17.8762 17.5282 16.813 17.8485 15.7026 17.7765C13.3251 17.6226 11.4627 15.5558 11.4627 13.0713ZM14.102 22.5033C14.0988 22.5065 14.0912 22.5142 14.0759 22.5126C14.0606 22.5111 14.0546 22.5022 14.0521 22.4983L12.5942 20.3115L13.0634 19.8186L15.2749 21.3303L14.102 22.5033ZM16.0059 20.6943L13.4675 18.9592V18.0842C14.1243 18.4393 14.8597 18.6613 15.6419 18.712C15.7655 18.72 15.8883 18.7239 16.0107 18.7239C16.9071 18.7239 17.7697 18.5097 18.5444 18.103V18.9592L16.0059 20.6943ZM17.9598 22.4984C17.9573 22.5023 17.9513 22.5112 17.936 22.5127C17.9207 22.5147 17.9132 22.5066 17.9099 22.5034L16.7369 21.3305L18.9485 19.8187L19.4177 20.3117L17.9598 22.4984ZM26.5193 22.1029L25.4555 21.0392C25.4741 20.9549 25.4846 20.8626 25.4845 20.7608L25.4844 20.563C25.7796 20.6598 26.0907 20.7173 26.4127 20.727C26.4488 20.7281 26.4846 20.7286 26.5206 20.7286C26.8764 20.7286 27.2236 20.6748 27.5541 20.5723V20.761C27.5541 20.8545 27.5659 20.9462 27.588 21.0342L26.5193 22.1029ZM28.2869 19.0745C27.7901 19.5567 27.1338 19.8113 26.4409 19.7899C25.0844 19.7492 23.9808 18.5544 23.9808 17.1266V16.2503C23.9808 16.1775 23.9639 16.1057 23.9313 16.0407L23.6418 15.4615C23.5357 15.2493 23.4796 15.0118 23.4796 14.7746V14.7467C23.4796 13.6233 24.3936 12.7094 25.5169 12.7094H29.5589V14.6563C29.5589 14.9709 29.4846 15.286 29.3439 15.5674L29.1073 16.0407C29.0747 16.1058 29.0578 16.1775 29.0578 16.2503V17.2527C29.0578 17.9452 28.784 18.5922 28.2869 19.0745Z" fill="black"/>
<path d="M29.5264 23.8008C29.2675 23.8008 29.0576 24.0107 29.0576 24.2695V27.2767C29.0576 27.5356 29.2675 27.7455 29.5264 27.7455C29.7852 27.7455 29.9951 27.5356 29.9951 27.2767V24.2695C29.9951 24.0107 29.7852 23.8008 29.5264 23.8008Z" fill="black"/>
<path d="M2.47363 24.4204C2.21476 24.4204 2.00488 24.6303 2.00488 24.8892V27.2767C2.00488 27.5356 2.21476 27.7455 2.47363 27.7455C2.73251 27.7455 2.94238 27.5356 2.94238 27.2767V24.8892C2.94238 24.6303 2.73251 24.4204 2.47363 24.4204Z" fill="black"/>
<path d="M19.8458 9.90472C18.0729 8.13185 14.3636 8.47078 12.851 8.69878C12.3746 8.7706 12.0288 9.17378 12.0288 9.65747V10.7373C12.0288 10.9962 12.2387 11.2061 12.4976 11.2061C12.7564 11.2061 12.9663 10.9962 12.9663 10.7373V9.65741C12.9663 9.64147 12.9768 9.62785 12.9908 9.62572C13.595 9.53466 14.7939 9.39416 16.0361 9.47697C17.4979 9.57428 18.5566 9.94122 19.1829 10.5676C19.366 10.7507 19.6628 10.7507 19.8458 10.5676C20.0289 10.3845 20.0289 10.0877 19.8458 9.90472Z" fill="black"/>
<path d="M10.4927 24.8032C10.2338 24.8032 10.0239 25.0131 10.0239 25.272V27.2768C10.0239 27.5357 10.2338 27.7455 10.4927 27.7455C10.7516 27.7455 10.9614 27.5357 10.9614 27.2768V25.272C10.9614 25.0132 10.7516 24.8032 10.4927 24.8032Z" fill="black"/>
<path d="M21.519 24.8032C21.2602 24.8032 21.0503 25.0131 21.0503 25.272V27.2768C21.0503 27.5357 21.2602 27.7455 21.519 27.7455C21.7779 27.7455 21.9878 27.5357 21.9878 27.2768V25.272C21.9878 25.0132 21.7779 24.8032 21.519 24.8032Z" fill="black"/>
</svg>
