<svg width="24" height="24" viewBox="0 0 24 24" fill="none" xmlns="http://www.w3.org/2000/svg">
<path d="M12 2C9.29202 2 7.09677 4.18118 7.09677 6.8718C7.09677 9.56241 9.29202 11.7436 12 11.7436C14.708 11.7436 16.9032 9.56241 16.9032 6.8718C16.9032 4.18118 14.708 2 12 2Z" fill="#0A6BFE"/>
<path fill-rule="evenodd" clip-rule="evenodd" d="M4 19.226C4 16.2265 6.44729 13.7949 9.46618 13.7949H14.5338C17.5527 13.7949 20 16.2265 20 19.226C20 19.7766 19.7994 20.4966 19.1019 20.8737C18.1779 21.3733 16.1959 22 12 22C7.80414 22 5.82206 21.3733 4.89812 20.8737C4.20063 20.4966 4 19.7766 4 19.226Z" fill="#0A6BFE"/>
</svg>
