<svg width="40" height="40" viewBox="0 0 40 40" fill="none" xmlns="http://www.w3.org/2000/svg">
<g clip-path="url(#clip0_691_24593)">
<path d="M39.375 22.4681C39.375 19.7469 38.0556 17.1481 35.8456 15.5169C35.395 15.1831 34.8363 15 34.2731 15C33.5681 15 32.9075 15.2819 32.4225 15.7613C32.3319 15.6856 32.2494 15.6025 32.1556 15.5306C31.8088 15.2656 31.3925 15.1081 30.965 15.0431L31.2406 12.0125C31.2469 11.94 31.25 11.8669 31.25 11.7938C31.25 10.46 30.165 9.375 28.8313 9.375H28.6687C27.335 9.375 26.25 10.46 26.25 11.7938C26.25 11.8669 26.2531 11.94 26.26 12.0131L26.5369 15.0569C26.1406 15.1319 25.7575 15.285 25.4338 15.5262C25.3219 15.61 25.2225 15.7063 25.115 15.7944C25.0594 15.7369 25.0006 15.6831 24.94 15.6313C24.9756 15.4231 25 15.2125 25 15C25 14.2063 24.7525 13.4469 24.2937 12.8125C24.7525 12.1781 25 11.4194 25 10.625C25 8.485 23.1894 6.75062 21.0319 6.88188C20.6306 5.73187 19.695 4.865 18.545 4.53063C17.7838 3.58125 16.6362 3.05438 15.4069 3.13188C14.8894 1.64875 13.4881 0.625 11.875 0.625C10.5219 0.625 9.29 1.34875 8.62625 2.50187C6.97125 2.5575 5.54062 3.72563 5.13062 5.31687C3.19562 6.03875 1.875 7.91187 1.875 10C1.875 11.6744 2.69875 13.205 4.06188 14.13C3.85625 14.5994 3.75 15.1069 3.75 15.625C3.75 16.75 4.25 17.7956 5.10813 18.5037C5.03625 18.7938 5 19.0856 5 19.375C5 21.29 6.44375 22.875 8.3 23.0981L9.6825 26.97C8.97437 27.4919 8.37125 28.145 7.90688 28.895L4.6325 28.1675C4.50813 28.1388 4.38 28.125 4.25125 28.125C3.28562 28.125 2.5 28.9106 2.5 29.8762V30.1238C2.5 30.2988 2.53375 30.465 2.58188 30.625H2.5C1.46625 30.625 0.625 31.4662 0.625 32.5C0.625 33.5337 1.46625 34.375 2.5 34.375H2.58188C2.53375 34.535 2.5 34.7012 2.5 34.8762V35.1238C2.5 36.0894 3.28562 36.875 4.25125 36.875C4.38 36.875 4.50812 36.8612 4.63125 36.8331L7.90688 36.105C9.12 38.0638 11.2819 39.375 13.75 39.375H13.8969C14.2444 39.375 14.5962 39.3481 14.9419 39.295L36.3738 35.9981C38.1125 35.73 39.375 34.2594 39.375 32.5C39.375 31.0931 38.5606 29.8825 37.3481 29.3119C38.6431 27.765 39.375 25.8025 39.375 23.7819V22.4681ZM31.3956 16.5238C33.2612 17.95 34.375 20.2219 34.375 22.6025V24.8981C34.375 26.1794 34.0556 27.4338 33.4538 28.5531L28.4419 27.7819C28.2356 26.875 28.125 25.9487 28.125 25.0187V22.4813C28.125 21.8513 28.1881 21.2219 28.2838 20.5981C28.4369 20.6112 28.5894 20.625 28.75 20.625C30.5319 20.625 31.875 19.8188 31.875 18.75C31.875 18.16 31.4669 17.6362 30.76 17.2925L30.8519 16.2812C31.0469 16.3206 31.2344 16.3994 31.3956 16.5238ZM28.6687 10.625H28.8319C29.4762 10.625 30.0006 11.1494 30.0006 11.7938C30.0006 11.8294 29.9994 11.865 29.9956 11.9L29.4281 18.1419L29.905 18.295C30.4525 18.47 30.625 18.7006 30.625 18.75C30.625 18.9056 29.96 19.375 28.75 19.375C27.54 19.375 26.875 18.9056 26.875 18.75C26.875 18.7006 27.0475 18.47 27.595 18.2944L28.0719 18.1412L27.5044 11.9C27.5012 11.8644 27.5 11.8288 27.5 11.7938C27.5 11.1494 28.0244 10.625 28.6687 10.625ZM26.65 16.3019L26.74 17.2925C26.0331 17.6362 25.625 18.16 25.625 18.75C25.625 19.4387 26.1869 20.0144 27.06 20.3394C26.9481 21.0487 26.875 21.765 26.875 22.4813V25.0187C26.875 25.8775 26.9575 26.735 27.1175 27.5781L23.4331 27.0112C23.2325 26.3244 23.125 25.6162 23.125 24.8975V22.6019C23.125 20.225 24.2675 17.9538 26.1812 16.5275C26.3206 16.4237 26.4812 16.3475 26.65 16.3019ZM19.8956 26.4669C19.5562 25.6081 19.375 24.7087 19.375 23.7819V22.4675C19.375 20.1413 20.505 17.9188 22.3969 16.5212C22.6344 16.3462 22.9294 16.25 23.2269 16.25C23.6044 16.25 23.9519 16.4019 24.2062 16.6562C22.7325 18.2712 21.875 20.3925 21.875 22.6025V24.8981C21.875 25.5425 21.9519 26.18 22.0913 26.805L19.8956 26.4669ZM19.9544 7.68812L20.0681 8.33125L20.7056 8.18937C20.8994 8.14625 21.0775 8.125 21.25 8.125C22.6287 8.125 23.75 9.24625 23.75 10.625C23.75 11.2819 23.495 11.9031 23.0325 12.3744L22.6025 12.8125L23.0325 13.2506C23.495 13.7219 23.75 14.3431 23.75 15C23.75 15.0188 23.7463 15.0375 23.7463 15.0569C23.5769 15.0231 23.4044 15 23.2269 15C22.6637 15 22.105 15.1831 21.6544 15.5163C20.5169 16.3556 19.6213 17.4538 19.0138 18.6906C18.7769 17.9531 18.5281 17.2469 18.2719 16.5763C18.85 13.5225 20.9944 11.755 21.0163 11.7369L20.625 11.25L20.2344 10.7619C20.1475 10.8313 18.4569 12.2119 17.5075 14.7025C16.2069 11.7163 14.9794 9.78438 14.9006 9.66187L13.8488 10.3381C13.8656 10.3638 14.8188 11.8631 15.9281 14.25C14.0588 13.5462 11.9344 13.7406 11.8125 13.7531L11.9369 14.9969C12.8769 14.9025 15.5394 14.9481 16.7831 16.2175C17.2213 17.2944 17.6531 18.475 18.0344 19.74C16.1344 18.7656 13.8675 18.75 13.75 18.75V20C13.7794 20 16.5619 20.0187 18.2087 21.3281C18.1575 21.7044 18.125 22.0844 18.125 22.4681V23.7825C18.125 24.6269 18.255 25.4525 18.4963 26.2525L14.9419 25.7056C14.7544 25.6769 14.565 25.6575 14.375 25.6437C12.9963 25.6437 11.875 24.5138 11.875 23.1256C11.875 22.8344 11.9331 22.5356 12.0469 22.2362L12.2294 21.7581L11.7963 21.4844C11.0631 21.0206 10.625 20.2325 10.625 19.375C10.625 18.8831 10.7694 18.4062 11.0425 17.995L11.4319 17.41L10.8056 17.0919C9.5375 16.4469 8.75 15.1669 8.75 13.75C8.75 12.0869 9.8675 10.6056 11.4681 10.1475L11.8562 10.0363L11.9144 9.63688C12.0925 8.41875 13.1506 7.5 14.375 7.5C14.3981 7.5 14.4206 7.505 14.4431 7.50812C14.4869 7.51437 14.5312 7.52 14.5756 7.52312L15.0238 7.55938L15.2 7.14562C15.5944 6.22187 16.4969 5.625 17.5 5.625C18.7113 5.625 19.7431 6.4925 19.9544 7.68812ZM9.19063 21.875H8.75C7.37125 21.875 6.25 20.7537 6.25 19.375C6.25 19.0831 6.30812 18.7844 6.42188 18.4862L6.605 18.0081L6.17188 17.7344C5.43813 17.2706 5 16.4825 5 15.625C5 15.1331 5.14438 14.6562 5.4175 14.245L5.80688 13.66L5.18062 13.3419C3.9125 12.6969 3.125 11.4169 3.125 10C3.125 8.33687 4.2425 6.85563 5.8425 6.3975L6.23063 6.28625L6.28875 5.88687C6.4675 4.66875 7.52563 3.75 8.75 3.75C8.77375 3.75 8.79688 3.755 8.82 3.75813C8.8625 3.76375 8.905 3.76938 8.94875 3.77313L9.39875 3.81063L9.57563 3.395C9.96937 2.47188 10.8719 1.875 11.875 1.875C13.0863 1.875 14.1181 2.7425 14.3294 3.93813L14.4431 4.58125L15.0806 4.43938C15.2744 4.39625 15.4525 4.375 15.625 4.375C15.9125 4.375 16.1856 4.43813 16.4469 4.52938C15.5281 4.79813 14.7369 5.40812 14.2513 6.25187C12.5962 6.3075 11.1656 7.47563 10.7556 9.06688C8.82062 9.78875 7.5 11.6619 7.5 13.75C7.5 15.4244 8.32375 16.955 9.68687 17.88C9.48125 18.3494 9.375 18.8569 9.375 19.375C9.375 20.5 9.875 21.5456 10.7331 22.2544C10.6613 22.5444 10.625 22.8356 10.625 23.125C10.625 24.2231 11.0975 25.21 11.8456 25.8988C11.4744 26.0063 11.1175 26.1456 10.775 26.3112L9.19063 21.875ZM3.75 30.1238V29.8762C3.75 29.5625 4.05375 29.3206 4.36063 29.3869L7.335 30.0481C7.2625 30.2369 7.1975 30.4287 7.14188 30.625H4.25125C3.975 30.625 3.75 30.4 3.75 30.1238ZM1.875 32.5C1.875 32.1556 2.15562 31.875 2.5 31.875H4.25125H6.90625C6.88812 32.0812 6.875 32.2887 6.875 32.5C6.875 32.7113 6.88812 32.9188 6.90687 33.125H4.25125H2.5C2.15562 33.125 1.875 32.8444 1.875 32.5ZM4.35938 35.6131C4.06312 35.6769 3.75 35.4369 3.75 35.1238V34.8762C3.75 34.6 3.975 34.375 4.25125 34.375H7.14125C7.19687 34.5713 7.2625 34.7631 7.33437 34.9519L4.35938 35.6131ZM38.125 32.5C38.125 33.6381 37.3088 34.5894 36.1844 34.7625L14.7531 38.0594C14.4694 38.1031 14.1813 38.125 13.8969 38.125H13.75C10.6488 38.125 8.125 35.6012 8.125 32.5C8.125 29.3988 10.6488 26.875 13.75 26.875H13.8969C14.1813 26.875 14.4694 26.8969 14.7525 26.94L36.1838 30.2369C37.3088 30.4106 38.125 31.3619 38.125 32.5ZM38.125 23.7819C38.125 25.7044 37.3469 27.5644 35.9931 28.9431L34.7513 28.7519C35.3219 27.5531 35.625 26.2387 35.625 24.8975V22.6019C35.625 20.3806 34.7788 18.2488 33.325 16.6313C33.5775 16.3931 33.9125 16.25 34.2731 16.25C34.5713 16.25 34.8656 16.3463 35.1031 16.5225C36.995 17.9188 38.125 20.1419 38.125 22.4681V23.7819Z" fill="black"/>
<path d="M13.125 29.375H14.375V35.625H13.125V29.375Z" fill="black"/>
<path d="M18.125 29.375H19.375V35.625H18.125V29.375Z" fill="black"/>
<path d="M23.125 29.375H24.375V35.625H23.125V29.375Z" fill="black"/>
<path d="M28.125 30.625H29.375V34.375H28.125V30.625Z" fill="black"/>
<path d="M33.125 31.25H34.375V33.75H33.125V31.25Z" fill="black"/>
</g>
<defs>
<clipPath id="clip0_691_24593">
<rect width="40" height="40" fill="white"/>
</clipPath>
</defs>
</svg>
