<svg width="32" height="32" viewBox="0 0 32 32" fill="none" xmlns="http://www.w3.org/2000/svg">
<path d="M17.3323 22.6669C17.3323 21.9315 16.7362 21.3354 16.0007 21.3354C15.2654 21.3354 14.6692 21.9315 14.6692 22.6669C14.6692 23.4023 15.2654 23.9985 16.0007 23.9985C16.7362 23.9985 17.3323 23.4023 17.3323 22.6669ZM16.9867 12.1959C16.92 11.7079 16.5014 11.332 15.9951 11.3324C15.4428 11.3328 14.9955 11.7809 14.9959 12.3332L15.0007 18.3353L15.0099 18.471C15.0766 18.959 15.4952 19.3349 16.0015 19.3345C16.5538 19.3341 17.0011 18.8861 17.0007 18.3337L16.9959 12.3316L16.9867 12.1959ZM18.6257 4.87884C17.4839 2.8151 14.517 2.81513 13.3754 4.8789L3.04837 23.5475C1.94229 25.547 3.38845 27.9997 5.67349 27.9997H26.3282C28.6133 27.9997 30.0594 25.547 28.9533 23.5474L18.6257 4.87884ZM15.1255 5.84701C15.5061 5.15909 16.495 5.15906 16.8755 5.84698L27.2033 24.5155C27.5719 25.1821 27.0899 25.9997 26.3282 25.9997H5.67349C4.91181 25.9997 4.42976 25.1821 4.79845 24.5157L15.1255 5.84701Z" fill="#FF0A0A"/>
</svg>
